<?xml version="1.0" encoding="utf-8"?>
<!-- Generator: Adobe Illustrator 24.1.0, SVG Export Plug-In . SVG Version: 6.00 Build 0)  -->
<svg version="1.1" xmlns="http://www.w3.org/2000/svg" xmlns:xlink="http://www.w3.org/1999/xlink" x="0px" y="0px"
	 viewBox="0 0 1920 1080" style="enable-background:new 0 0 1920 1080;" xml:space="preserve">
<style type="text/css">
	.st0{display:none;}
	.st1{display:inline;fill:#9FB0A8;}
	.st2{display:inline;fill:#B3B3B3;}
	.st3{display:inline;}
	.st4{fill:#BF8E7D;}
	.st5{fill:#9F6A58;}
	.st6{fill:#9FB0A8;}
	.st7{fill:#92A099;}
	.st8{fill:#929A99;}
	.st9{fill:#B3B3B3;}
	.st10{fill:#CCCCCC;}
	.st11{fill:none;}
	.st12{fill:#E6E6E6;}
	.st13{fill:#F8F8F8;}
	.st14{fill:#FFFFFF;}
	.st15{fill:#F7F5F6;}
	.st16{fill:#FFFEFF;}
	.st17{clip-path:url(#SVGID_8_);}
	.st18{fill-rule:evenodd;clip-rule:evenodd;fill:#BF8E7D;}
	.st19{fill:#975C4C;}
	.st20{clip-path:url(#SVGID_10_);}
</style>
<g id="Layer_2" class="st0">
	<path class="st1" d="M1531.8,413.9H388.2l58.3-183.8c11.6-36.4,42.6-60.8,77.4-60.8h872.1c34.8,0,65.9,24.4,77.4,60.8L1531.8,413.9
		z"/>
	<path class="st2" d="M1451.7,412.6l-50.1-139.2c-9.9-27.6-36.7-46.1-66.6-46.1H584.5c-30,0-56.7,18.5-66.6,46.1l-50.1,139.2h0.7
		v132.3h983.8V412.6H1451.7z"/>
	<g id="reverse_stamp" class="st3">
		<path class="st4" d="M975,141c-13.9,0-26.7,4.7-36.9,12.6c-0.7-5,1.1-10.1,5.3-13.9c4.3-3.8,9.4-4.2,14.6-5.6
			c6.6-1.8,12.5-5.1,19.1-6.9c15.7-4.2,37.6,3,48,15.5c6.1,7.4,10.1,16.7,12.4,26.6h-11.4C1015.5,152.3,996.6,141,975,141z"/>
		<path class="st5" d="M927.1,167.3C927.1,167.3,927.1,167.3,927.1,167.3c-0.5,0.7-1,1.4-1.4,2h-1.8c3.8-6,8.6-11.4,14.2-15.7
			c0.1,0.6,0.2,1.3,0.4,1.9C934.2,158.9,930.3,162.8,927.1,167.3z"/>
		<path class="st5" d="M1026.1,169.3h-1.6c-10.6-15.9-28.8-26.5-49.4-26.5c-13.8,0-26.5,4.7-36.6,12.6c-0.2-0.6-0.3-1.3-0.4-1.9
			c10.2-7.9,23-12.6,36.9-12.6C996.6,141,1015.5,152.3,1026.1,169.3z"/>
		<path class="st4" d="M927.1,167.3c3.2-4.4,7.1-8.4,11.4-11.8v0C934.2,158.9,930.3,162.8,927.1,167.3z"/>
		<path class="st4" d="M925.7,169.3c0.4-0.7,0.9-1.3,1.4-1.9C926.6,168,926.2,168.6,925.7,169.3L925.7,169.3z"/>
		<path class="st4" d="M927,167.4C927.1,167.3,927.1,167.3,927,167.4c3.3-4.5,7.1-8.5,11.4-11.9v0c10.1-7.9,22.8-12.6,36.6-12.6
			c20.6,0,38.8,10.5,49.4,26.5h-98.8C926.2,168.6,926.6,168,927,167.4z"/>
	</g>
</g>
<g id="Layer_1" class="st0">
	<g class="st3">
		<g id="envelope">
			<rect x="388.2" y="413.9" class="st6" width="1143.6" height="586.7"/>
			<g>
				<path class="st7" d="M497.6,526.1v-2.8c0-60.2-49.2-109.4-109.4-109.4l0,0v552.5l99.2-426.7C488.7,533.8,492.6,529,497.6,526.1z
					"/>
				<path class="st8" d="M514.4,523.3h-6.2c-3.9,0-7.5,1-10.7,2.8v5.5C501.5,526.5,507.7,523.3,514.4,523.3z"/>
				<path class="st8" d="M1422.4,531.7v-5.7c-3.1-1.7-6.6-2.6-10.4-2.6h-6.5C1412.3,523.3,1418.5,526.5,1422.4,531.7z"/>
				<path class="st7" d="M1526.4,1000.6h5.4l-0.7-2.9C1530.2,999.4,1528.4,1000.6,1526.4,1000.6z"/>
				<path class="st7" d="M1422.4,995.2V531.7c-3.9-5.1-10.1-8.4-16.8-8.4H514.4c-6.8,0-12.9,3.2-16.8,8.4v469h930.2
					C1424.8,1000.6,1422.4,998.2,1422.4,995.2z"/>
				<path class="st7" d="M493.8,539.7l-105.6,460.9h109.4v-469C495.8,534,494.5,536.7,493.8,539.7z"/>
			</g>
			<g>
				<path class="st9" d="M1451.7,412.6l-50.1-139.2c-9.9-27.6-36.7-46.1-66.6-46.1H584.5c-30,0-56.7,18.5-66.6,46.1l-50.1,139.2h0.7
					v132.3h983.8V412.6H1451.7z"/>
				<g>
					<g>
						<path class="st10" d="M660.9,376.7c34.1,21.2,70.9,32,108.6,32c15.6,0,31.2-1.8,46.9-5.6c2.1-0.5,3.5-2.7,3-4.8
							c-0.5-2.1-2.7-3.5-4.8-3c-51.4,12.2-103.1,3.4-149.4-25.5c-57.8-36.1-94-94.7-105.1-138.3c-2.5,0.9-5,1.9-7.4,3.1
							C564.4,279.8,601.7,339.8,660.9,376.7z"/>
					</g>
					<g>
						<path class="st10" d="M970.1,540.3c-69.3,1.1-116.9-31.2-144.5-58.3c-41.9-41.2-69.2-101.5-69.4-153.5c0-2.2-1.8-4-4-4l0,0
							c-2.2,0-4,1.8-4,3.9c0.2,54.1,28.4,116.7,71.8,159.3c31,30.4,68,49.8,108.7,57.2h45.4C974.4,542.4,972.5,540.3,970.1,540.3z"
							/>
					</g>
					<g>
						<path class="st10" d="M971.4,421.7c-1.5,0-3-0.9-3.7-2.4c-20.7-47.8-69.5-92.5-124.3-113.8c-36.1-14.1-92.5-24.9-155.8,3.3
							c-2,0.9-4.4,0-5.3-2c-0.9-2,0-4.4,2-5.3c52.1-23.2,108.2-24.5,162-3.5C903,320.1,953.5,366.5,975,416.2c0.9,2-0.1,4.4-2.1,5.2
							C972.4,421.6,971.9,421.7,971.4,421.7z"/>
					</g>
					
						<image style="overflow:visible;" width="41" height="41" xlink:href="A20E8084455B560D.png"  transform="matrix(1 0 0 1 859 424)">
					</image>
					<g>
						<path class="st10" d="M1182.6,227c-32,47-23.6,111.6,21,148.6c0.7,0.6,1.6,0.9,2.5,0.9c1.1,0,2.3-0.5,3.1-1.4
							c1.4-1.7,1.2-4.2-0.5-5.6c-42.9-35.6-49.7-98.6-16.3-142.5H1182.6z"/>
					</g>
					<g>
						<path class="st10" d="M1349.5,336.7c0.2,2,1.9,3.6,4,3.6c0.1,0,0.3,0,0.4,0c2.2-0.2,3.8-2.2,3.5-4.4
							c-3.3-31.4,21.8-57.6,39.8-72.2c-1.3-2.4-2.7-4.6-4.3-6.8C1362.1,281.5,1346.7,309.7,1349.5,336.7z"/>
					</g>
					<g>
						<path class="st10" d="M1394.7,408.6c-2,0-3.7-1.5-4-3.6c-3-28.3-29.2-61-68.4-85.1c-52.8-32.6-113.3-41.1-161.8-22.8
							c-2,0.8-4.3-0.3-5.1-2.3c-0.8-2.1,0.3-4.4,2.3-5.1c50.8-19.2,113.9-10.4,168.8,23.4c41.3,25.4,68.9,60.3,72.2,91.1
							c0.2,2.2-1.4,4.1-3.5,4.4C1395,408.6,1394.9,408.6,1394.7,408.6z"/>
					</g>
					<g>
						<path class="st10" d="M1269,494.2c-1.8,0-3.5-1.3-3.9-3.1c-9.9-43.9-46.5-104.8-105.9-141.9c-46.3-28.9-98-37.7-149.4-25.5
							c-2.1,0.5-4.3-0.8-4.8-3c-0.5-2.1,0.8-4.3,3-4.8c53.6-12.7,107.3-3.6,155.5,26.5c61.3,38.3,99.2,101.3,109.5,146.9
							c0.5,2.1-0.9,4.3-3,4.8C1269.6,494.2,1269.3,494.2,1269,494.2z"/>
					</g>
					<path class="st10" d="M1188.7,365.3c-58.3,63.7-144,107.3-203.7,103.8c-2.2-0.1-4.1,1.5-4.2,3.7c-0.1,2.2,1.5,4.1,3.7,4.2
						c2.5,0.1,5,0.2,7.6,0.2c62.1,0,144.1-42.9,202.5-106.6c42.3-46.1,65.7-96.1,67.9-143.7h-8
						C1252.2,272.5,1229.5,320.7,1188.7,365.3z"/>
					<g>
						<path class="st11" d="M1302.4,393.7c-17.8,15.3-32.6,33.7-43.2,54c-1.8,3.5-3.5,7.1-5.1,10.6c1.7,0.3,3.1,1.7,3.3,3.5
							c0.2,2.2-1.4,4.1-3.5,4.4c-1,0.1-2.1,0.3-3.1,0.4c-9.2,24.4-12.8,50.9-10.8,78.6h187.3c-5.6-2.9-11.1-6-16.6-9.4
							C1351.5,498.9,1314.1,438.8,1302.4,393.7z"/>
						<path class="st11" d="M968.4,417c-82.9,17.3-154.5,66.2-187.8,128.2h188.1C957.2,508.2,956.9,464.3,968.4,417z"/>
						<path class="st11" d="M1241.8,468.1c-26.9,5.3-56.9,18.8-80.8,36.8c-11.3,8.5-27.1,22.6-36.6,40.3H1232
							C1230.1,518.1,1233.4,492.2,1241.8,468.1z"/>
						<path class="st10" d="M1410.7,535.8c5.5,3.4,11,6.5,16.6,9.4h18.9c-10.6-4.4-21.1-9.8-31.3-16.1
							c-59-36.8-95.5-97.1-105.7-140.9c-2.3,1.8-4.6,3.7-6.8,5.6C1314.1,438.8,1351.5,498.9,1410.7,535.8z"/>
						<path class="st10" d="M1254.1,458.4c1.6-3.6,3.2-7.2,5.1-10.6c10.5-20.3,25.4-38.7,43.2-54c-0.4-1.6-0.8-3.2-1.2-4.8
							c-0.5-2.1,0.9-4.3,3-4.8c2.1-0.5,4.3,0.9,4.8,3c0.1,0.3,0.2,0.6,0.2,0.9c18.1-14.2,38.8-25.3,60.7-32.1c2.1-0.7,3.3-2.9,2.6-5
							c-0.7-2.1-2.9-3.3-5-2.6c-49.8,15.5-91.9,50.3-115.4,95.6c-2.6,5-5,10.2-7.1,15.4c2.7-0.4,5.4-0.8,8-1.1
							C1253.4,458.3,1253.8,458.3,1254.1,458.4z"/>
						<path class="st10" d="M1304.2,384.2c-2.1,0.5-3.5,2.6-3,4.8c0.4,1.6,0.8,3.2,1.2,4.8c2.2-1.9,4.5-3.8,6.8-5.6
							c-0.1-0.3-0.2-0.6-0.2-0.9C1308.5,385,1306.3,383.7,1304.2,384.2z"/>
						<path class="st10" d="M1250.8,466.6c-3,0.4-5.9,0.9-9,1.4c-8.4,24.1-11.7,50.1-9.8,77.1h8C1238,517.5,1241.6,491,1250.8,466.6
							z"/>
						<path class="st10" d="M968.4,417c0.7-2.8,1.4-5.7,2.2-8.6c-0.8,0.2-1.6,0.3-2.3,0.5c-86.6,17.6-161.6,69.2-195.7,134.5
							c-0.3,0.6-0.4,1.2-0.4,1.8h8.5C813.9,483.2,885.5,434.3,968.4,417z"/>
						<path class="st10" d="M977,415.3c60.9-10.9,114.5-1.7,147.8,25.6c1.7,1.4,4.2,1.1,5.6-0.6c1.4-1.7,1.1-4.2-0.6-5.6
							c-34.5-28.3-88.9-38.3-150.6-27.9c-0.1,0.2-0.1,0.4-0.2,0.6C978.3,410,977.6,412.7,977,415.3z"/>
						<path class="st10" d="M1257.4,461.9c-0.2-1.8-1.6-3.2-3.3-3.5c-1.2,2.7-2.3,5.5-3.3,8.3c1-0.1,2.1-0.3,3.1-0.4
							C1256,466,1257.6,464,1257.4,461.9z"/>
						<path class="st10" d="M1161,504.9c23.9-18,53.9-31.5,80.8-36.8c1-2.9,2.1-5.8,3.3-8.6c-29.3,4.8-62.6,19.4-88.8,39.1
							c-19.3,14.5-33,30.4-40.7,46.6h8.9C1133.9,527.5,1149.7,513.4,1161,504.9z"/>
						<path class="st10" d="M1250.8,466.6c1-2.8,2.2-5.5,3.3-8.3c-0.3-0.1-0.7-0.1-1.1,0c-2.6,0.3-5.3,0.7-8,1.1
							c-1.2,2.9-2.2,5.7-3.3,8.6C1244.8,467.5,1247.8,467,1250.8,466.6z"/>
						<path class="st10" d="M968.4,417c-11.4,47.3-11.2,91.2,0.3,128.2h8.3c-12.2-37-12.3-81.6-0.1-129.9c-2.4,0.4-4.8,0.9-7.2,1.4
							C969.3,416.8,968.9,416.9,968.4,417z"/>
						<path class="st10" d="M1104.9,227h-15.6c-50.1,32.9-96.7,102.3-117.9,178.3c-0.3,1.1-0.6,2.1-0.8,3.2c2.9-0.6,5.8-1.1,8.7-1.6
							C1001.3,328.3,1053.1,254.8,1104.9,227z"/>
						<path class="st10" d="M969.8,416.7c2.4-0.5,4.8-0.9,7.2-1.4c0.7-2.6,1.4-5.3,2.1-7.9c0.1-0.2,0.1-0.4,0.2-0.6
							c-2.9,0.5-5.8,1-8.7,1.6c-0.8,2.9-1.5,5.7-2.2,8.6C968.9,416.9,969.3,416.8,969.8,416.7z"/>
					</g>
					<g>
						
							<image style="overflow:visible;" width="41" height="40" xlink:href="A20E8084455B560E.png"  transform="matrix(1 0 0 1 696 382)">
						</image>
						
							<image style="overflow:visible;" width="41" height="41" xlink:href="A20E8084455B560C.png"  transform="matrix(1 0 0 1 1344 467)">
						</image>
						
							<image style="overflow:visible;" width="40" height="41" xlink:href="A20E8084455B5604.png"  transform="matrix(1 0 0 1 599 318)">
						</image>
						
							<image style="overflow:visible;" width="40" height="41" xlink:href="A20E8084455B5605.png"  transform="matrix(1 0 0 1 585 449)">
						</image>
						
							<image style="overflow:visible;" width="41" height="41" xlink:href="A20E8084455B5602.png"  transform="matrix(1 0 0 1 738 263)">
						</image>
						
							<image style="overflow:visible;" width="40" height="41" xlink:href="A20E8084455B5603.png"  transform="matrix(1 0 0 1 1174 343)">
						</image>
						
							<image style="overflow:visible;" width="41" height="40" xlink:href="A20E8084455B5619.png"  transform="matrix(1 0 0 1 1132 479)">
						</image>
						
							<image style="overflow:visible;" width="41" height="40" xlink:href="A20E8084455B561A.png"  transform="matrix(1 0 0 1 992 295)">
						</image>
					</g>
					<g>
						<path class="st10" d="M760.6,280.7c-2.2-0.3-4.2,1.3-4.5,3.4c-8,62.6-48.9,120.9-111.9,160c-58.9,36.5-126,48.6-175.2,31.6
							c-0.2-0.1-0.5-0.1-0.8-0.2v8.3c15,4.9,31.5,7.4,48.9,7.4c41.9,0,88.7-14,131.2-40.4c65.1-40.4,107.3-100.8,115.6-165.8
							C764.3,283,762.8,281,760.6,280.7z"/>
						<path class="st10" d="M525.3,401.7c42.5-17.3,94-28.5,123.9-31.6c2.2-0.2,3.8-2.2,3.5-4.4c-0.2-2.2-2.2-3.8-4.4-3.5
							c-30.4,3.2-82.8,14.5-126,32.1c-22.9,9.3-41,19.4-54,30v10.3C479.4,424.2,497.3,413,525.3,401.7z"/>
					</g>
					<g>
						<g>
							<path class="st12" d="M667,412.8c0,0,0.9,4.5,3.7,5.4l0.7,12.6l-7.6-12.2C663.7,418.6,663.2,414.7,667,412.8z"/>
							<path class="st12" d="M653.2,421.5c-0.6-0.9-1.6-1.5-2.6-1.5c-0.4,0-0.7,0.1-0.9,0.3c-0.4,0.3,0.1,1.3,0,2.2
								c0,0,0.2,6.2,3.4,7.4c3.2,1.2,15.7,5.7,15.7,5.7l0.4-6.8C669.2,428.7,657.5,428.1,653.2,421.5z"/>
							<path class="st13" d="M649.2,427.1c1.2,1.4,3.9,3.8,7.1,3.1c0,0,8.4-3.6,13.5,6l-11.1,2.2c0,0-11.2-0.8-10.5-11
								C648.4,426.9,648.9,426.7,649.2,427.1z"/>
							<path class="st13" d="M658.9,418.3c0,0-0.7-2.4,0.6-4.7c1.5-2.7,6.9,6.9,6.9,6.9s4.8,9.1,4.2,14.6l-2.4,1.5
								C668.2,436.5,658.1,421.7,658.9,418.3z"/>
							<path class="st14" d="M653.5,417.6c0,0-1.8,2.7,2.6,9.1c0,0,3.9,6.8,9.4,9.5l4.4-3c0,0-3.2-8-6.9-11.3
								c-3.7-3.3-6.2-5.9-8.1-5.4C655,416.6,653.7,416.8,653.5,417.6z"/>
							<path class="st14" d="M656.3,442.7c1.9-3.8,6.7-11.7,13.9-8.8c0,0,3.9,3.1-0.5,6.2c0,0-7.5-3.2-13,3
								C656.5,443.2,656.1,443,656.3,442.7z"/>
							<path class="st15" d="M665.9,420.8c-0.3,0.5-1.7-0.3-1.7-0.3s-1.3,2.3-0.4,4.7c0.9,2.3,2.8,10.7,7.8,12.6l3.1-5.7
								c0,0-3.7-14-5.8-10.5C668.1,422.9,666.6,419.6,665.9,420.8z"/>
							<path class="st16" d="M671,416.6c0,0-7.2,8.6,1.3,20.9c0,0,5.9-10.6,3.3-15.3C675.6,422.1,673.7,418.3,671,416.6z"/>
							<path class="st15" d="M669.6,440c0,0,2.8-1.8,3.2-3.6C673.2,434.7,669.6,440,669.6,440z"/>
						</g>
						<g>
							<path class="st12" d="M743.1,458.3c0,0,8.1-2.4,9.4-7.9l23.3-3.5l-21.3,16.3C754.5,463.3,747.2,465.1,743.1,458.3z"/>
							<path class="st12" d="M761.6,482.4c-1.6,1.3-2.5,3.2-2.3,5.2c0.1,0.7,0.3,1.3,0.8,1.7c0.7,0.6,2.4-0.4,4-0.4
								c0,0,11.5-1.5,13.1-7.6c1.6-6.1,7.7-30.2,7.7-30.2l-12.7,0.4C772.2,451.4,773.2,473.1,761.6,482.4z"/>
							<path class="st13" d="M772.7,488.7c2.3-2.5,6.3-7.9,4.6-13.8c0,0-8.2-15,8.7-26.2l6,20.1c0,0,0.5,20.9-18.6,21.4
								C772.6,490.2,772.1,489.3,772.7,488.7z"/>
							<path class="st13" d="M754.7,472.3c0,0-4.3,1.7-8.9-0.3c-5.2-2.3,11.6-14,11.6-14s16-10.5,26.3-10.3l3.2,4.2
								C786.9,451.9,761.1,473.2,754.7,472.3z"/>
							<path class="st14" d="M754.4,482.4c0,0,5.3,2.9,16.4-6.5c0,0,11.9-8.5,16-19.2l-6.3-7.6c0,0-14.3,7.3-19.7,14.8
								c-5.4,7.4-9.8,12.6-8.6,15.9C752.3,479.8,752.8,482.2,754.4,482.4z"/>
							<path class="st14" d="M800.4,472.9c-7.5-2.8-22.8-10.3-18.9-24.2c0,0,5.1-7.9,11.5-0.1c0,0-4.7,14.5,7.8,23.5
								C801.3,472.4,801,473.1,800.4,472.9z"/>
							<path class="st15" d="M758.1,458.9c1,0.5-0.3,3.1-0.3,3.1s4.6,2,8.7,0c4.1-2,19.3-7.1,21.9-16.7l-11.1-4.8
								c0,0-25.4,9.3-18.4,12.6C761.7,454.5,755.8,457.7,758.1,458.9z"/>
							<path class="st16" d="M749.3,450.2c0,0,17.2,11.8,38.6-6.1c0,0-20.6-9-29-3.4C758.9,440.7,752.2,444.9,749.3,450.2z"/>
							<path class="st15" d="M793.1,448.6c0,0-3.9-4.8-7.2-5.3C782.5,442.8,793.1,448.6,793.1,448.6z"/>
						</g>
						<g>
							<path class="st12" d="M505.8,510.2c0,0,4.1-3.7,3.4-7.2l12.8-8.4l-8.1,15.5C513.9,510,510.1,513,505.8,510.2z"/>
							<path class="st12" d="M523.4,519.3c-0.6,1.2-0.6,2.6,0.1,3.7c0.2,0.4,0.5,0.7,0.9,0.8c0.6,0.2,1.3-0.9,2.2-1.4
								c0,0,6.4-4,5.6-8.1c-0.7-4.1-3.7-19.9-3.7-19.9l-7.4,3.7C521.1,498.1,527.6,510.7,523.4,519.3z"/>
							<path class="st13" d="M531.6,520c0.7-2.1,1.6-6.4-1.1-9.4c0,0-8.9-6.6-2-17.8l9.1,10.2c0,0,6,12.2-5.1,17.7
								C532,520.9,531.4,520.5,531.6,520z"/>
							<path class="st13" d="M516.5,515.3c0,0-2.1,2.2-5.3,2.3c-3.7,0.1,3-11.4,3-11.4s6.6-10.6,12.7-13.3l3,1.6
								C529.9,494.4,520.6,514,516.5,515.3z"/>
							<path class="st14" d="M519.1,521.2c0,0,3.9,0.2,7.9-8.3c0,0,4.7-8.2,4.2-15.7l-5.8-2.7c0,0-6.4,8.2-7.6,14.1
								c-1.2,5.9-2.4,10.1-0.7,11.7C517.1,520.3,518.1,521.6,519.1,521.2z"/>
							<path class="st14" d="M543.6,503c-5.2,0.4-16.3,0.2-17.7-9.1c0,0,0.8-6,6.8-3.2c0,0,1.2,9.8,11,11.7
								C544,502.5,544,503,543.6,503z"/>
							<path class="st15" d="M514.8,506.4c0.7,0,0.7,1.9,0.7,1.9s3.2-0.1,5.1-2.4c1.9-2.3,9.4-9.5,8.3-15.9l-7.8,0.2
								c0,0-12.4,12.4-7.4,12.5C515.7,502.8,513.2,506.3,514.8,506.4z"/>
							<path class="st16" d="M506.9,503.1c0,0,13.2,3.1,21.9-12.9c0,0-14.6-0.5-18.4,4.9C510.4,495.1,507.3,499.2,506.9,503.1z"/>
							<path class="st15" d="M532.7,490.7c0,0-3.6-1.8-5.7-1.1C524.8,490.3,532.7,490.7,532.7,490.7z"/>
						</g>
						<g>
							<path class="st12" d="M596.7,274.5c0,0-3.3,1-3.9,3.2l-9.5,1.4l8.7-6.7C592,272.4,595,271.7,596.7,274.5z"/>
							<path class="st12" d="M589.1,264.6c0.6-0.5,1-1.3,0.9-2.1c0-0.3-0.1-0.5-0.3-0.7c-0.3-0.2-1,0.1-1.6,0.2c0,0-4.7,0.6-5.4,3.1
								c-0.7,2.5-3.2,12.3-3.2,12.3l5.2-0.2C584.8,277.3,584.4,268.4,589.1,264.6z"/>
							<path class="st13" d="M584.6,262.1c-1,1-2.6,3.2-1.9,5.6c0,0,3.3,6.1-3.6,10.7l-2.5-8.2c0,0-0.2-8.5,7.6-8.8
								C584.6,261.4,584.8,261.8,584.6,262.1z"/>
							<path class="st13" d="M591.9,268.7c0,0,1.8-0.7,3.6,0.1c2.1,0.9-4.7,5.7-4.7,5.7s-6.5,4.3-10.8,4.2l-1.3-1.7
								C578.8,277.1,589.3,268.4,591.9,268.7z"/>
							<path class="st14" d="M592,264.6c0,0-2.2-1.2-6.7,2.6c0,0-4.8,3.5-6.5,7.8l2.6,3.1c0,0,5.8-3,8.1-6c2.2-3,4-5.2,3.5-6.5
								C592.9,265.7,592.7,264.7,592,264.6z"/>
							<path class="st14" d="M573.2,268.5c3.1,1.1,9.3,4.2,7.7,9.9c0,0-2.1,3.2-4.7,0.1c0,0,1.9-5.9-3.2-9.6
								C572.9,268.7,573,268.4,573.2,268.5z"/>
							<path class="st15" d="M590.5,274.2c-0.4-0.2,0.1-1.3,0.1-1.3s-1.9-0.8-3.6,0c-1.7,0.8-7.9,2.9-9,6.8l4.5,1.9
								c0,0,10.4-3.8,7.5-5.2C589.1,276,591.5,274.7,590.5,274.2z"/>
							<path class="st16" d="M594.1,277.8c0,0-7-4.8-15.8,2.5c0,0,8.4,3.7,11.9,1.4C590.2,281.7,592.9,280,594.1,277.8z"/>
							<path class="st15" d="M576.2,278.5c0,0,1.6,2,3,2.2C580.5,280.8,576.2,278.5,576.2,278.5z"/>
						</g>
						<g>
							<path class="st12" d="M948.7,415.4c0,0,4-2.2,4.1-5.2l11.8-4.4l-9.4,11C955.2,416.7,951.6,418.4,948.7,415.4z"/>
							<path class="st12" d="M961.1,425.9c-0.7,0.8-1,1.9-0.6,3c0.1,0.3,0.3,0.6,0.6,0.8c0.4,0.2,1.2-0.5,2.1-0.7c0,0,5.9-2.1,6-5.5
								c0.2-3.4,0.7-16.7,0.7-16.7l-6.6,1.7C963.2,408.5,966.1,419.8,961.1,425.9z"/>
							<path class="st13" d="M967.6,428c1-1.6,2.4-4.9,0.9-7.7c0,0-6-7,1.6-14.7l5.4,9.9c0,0,2.6,10.9-7.4,13.3
								C967.7,428.8,967.4,428.4,967.6,428z"/>
							<path class="st13" d="M956.3,421.4c0,0-2.1,1.4-4.7,0.8c-3-0.6,4.5-8.7,4.5-8.7s7.2-7.3,12.7-8.4l2.2,1.8
								C971,407.1,959.8,421.1,956.3,421.4z"/>
							<path class="st14" d="M957.3,426.7c0,0,3.1,0.9,7.9-5.2c0,0,5.3-5.8,6.3-11.9l-4.2-3.3c0,0-6.7,5.4-8.7,9.9s-3.8,7.7-2.7,9.3
								C955.9,425.6,956.5,426.8,957.3,426.7z"/>
							<path class="st14" d="M980.4,416.6c-4.2-0.6-13.1-2.9-12.6-10.6c0,0,1.8-4.7,6-1.4c0,0-0.8,8.1,6.7,11.5
								C980.8,416.2,980.7,416.6,980.4,416.6z"/>
							<path class="st15" d="M956.6,414c0.6,0.2,0.2,1.7,0.2,1.7s2.6,0.5,4.6-1c2-1.5,9.3-5.9,9.6-11.2l-6.4-1.3
								c0,0-12.3,7.7-8.3,8.7C958,411.2,955.3,413.6,956.6,414z"/>
							<path class="st16" d="M951.1,410.4c0,0,10.3,4.3,19.6-7.5c0,0-11.8-2.4-15.6,1.5C955,404.3,952,407.3,951.1,410.4z"/>
							<path class="st15" d="M973.9,404.6c0,0-2.6-2.1-4.4-2S973.9,404.6,973.9,404.6z"/>
						</g>
						<g>
							<path class="st12" d="M938.4,300.5c0,0-6.5,5.5-5.6,11l-20.1,12.4l13.1-23.4C926,300.4,932,296,938.4,300.5z"/>
							<path class="st12" d="M911.9,285.7c0.9-1.8,1.1-3.9,0.1-5.6c-0.3-0.6-0.8-1.1-1.4-1.3c-0.8-0.3-2.1,1.3-3.5,2
								c0,0-10,5.9-9,12.2c0.9,6.3,4.8,30.8,4.8,30.8l11.5-5.4C914.4,318.3,905,298.8,911.9,285.7z"/>
							<path class="st13" d="M899.3,284.3c-1.2,3.2-2.7,9.8,1.2,14.5c0,0,13.4,10.6,2.3,27.5l-13.5-16.1c0,0-8.6-19,8.6-27
								C898.7,282.8,899.5,283.5,899.3,284.3z"/>
							<path class="st13" d="M922.3,292.2c0,0,3.3-3.3,8.3-3.2c5.7,0-5.1,17.5-5.1,17.5s-10.6,15.9-20.1,19.9l-4.6-2.5
								C900.7,323.7,916,294,922.3,292.2z"/>
							<path class="st14" d="M918.6,282.9c0,0-6-0.5-12.6,12.4c0,0-7.6,12.4-7.1,23.9l8.8,4.5c0,0,10.2-12.3,12.3-21.3
								s4.1-15.5,1.6-18C921.6,284.4,920.1,282.4,918.6,282.9z"/>
							<path class="st14" d="M880,309.8c8-0.4,25.1,0.5,26.9,14.8c0,0-1.6,9.2-10.5,4.7c0,0-1.4-15.2-16.4-18.5
								C879.4,310.6,879.4,309.8,880,309.8z"/>
							<path class="st15" d="M924.4,305.9c-1.1-0.1-1-3-1-3s-5,0-8,3.4s-14.9,14.2-13.6,24l12.1,0c0,0,19.6-18.5,11.9-18.9
								C922.9,311.4,927,306.1,924.4,305.9z"/>
							<path class="st16" d="M935.9,310.5c0,0-20.5-4.1-33.1,20.8c0,0,22.5,0.1,28-8.3C930.8,322.9,935.4,316.5,935.9,310.5z"/>
							<path class="st15" d="M896.3,329.2c0,0,5.5,2.9,8.7,2C908.3,330.3,896.3,329.2,896.3,329.2z"/>
						</g>
						<g>
							<path class="st12" d="M1437.7,513.1c0,0-4,3.3-3.4,6.6l-12.1,7.5l7.9-14.2C1430.2,513.1,1433.8,510.4,1437.7,513.1z"/>
							<path class="st12" d="M1421.7,504.2c0.6-1.1,0.7-2.4,0-3.4c-0.2-0.4-0.5-0.6-0.8-0.8c-0.5-0.2-1.3,0.8-2.1,1.2
								c0,0-6,3.6-5.5,7.4c0.6,3.8,2.9,18.6,2.9,18.6l7-3.3C1423.2,523.9,1417.5,512.1,1421.7,504.2z"/>
							<path class="st13" d="M1414,503.3c-0.7,2-1.6,5.9,0.7,8.8c0,0,8.1,6.4,1.4,16.6l-8.1-9.8c0,0-5.2-11.5,5.2-16.3
								C1413.7,502.4,1414.2,502.8,1414,503.3z"/>
							<path class="st13" d="M1427.9,508.1c0,0,2-2,5-2c3.4,0-3.1,10.6-3.1,10.6s-6.4,9.6-12.2,12l-2.8-1.5
								C1414.9,527.2,1424.1,509.2,1427.9,508.1z"/>
							<path class="st14" d="M1425.7,502.5c0,0-3.6-0.3-7.6,7.5c0,0-4.6,7.5-4.3,14.5l5.3,2.7c0,0,6.2-7.5,7.4-12.9
								c1.2-5.4,2.5-9.4,1-10.9C1427.5,503.4,1426.6,502.2,1425.7,502.5z"/>
							<path class="st14" d="M1402.3,518.7c4.8-0.2,15.2,0.3,16.3,9c0,0-1,5.6-6.4,2.8c0,0-0.9-9.2-9.9-11.2
								C1402,519.2,1402,518.7,1402.3,518.7z"/>
							<path class="st15" d="M1429.3,516.4c-0.7,0-0.6-1.8-0.6-1.8s-3,0-4.9,2.1c-1.8,2.1-9,8.6-8.2,14.5l7.3,0
								c0,0,11.9-11.2,7.2-11.4C1428.3,519.7,1430.8,516.5,1429.3,516.4z"/>
							<path class="st16" d="M1436.2,519.2c0,0-12.4-2.5-20,12.6c0,0,13.6,0.1,17-5C1433.1,526.7,1435.9,522.8,1436.2,519.2z"/>
							<path class="st15" d="M1412.2,530.5c0,0,3.3,1.8,5.3,1.2C1419.5,531.1,1412.2,530.5,1412.2,530.5z"/>
						</g>
						<g>
							<path class="st12" d="M1096.3,394.6c0,0-4.4,3.3-4,6.9l-13.4,7.4l9.3-14.8C1088.2,394.1,1092.2,391.4,1096.3,394.6z"/>
							<path class="st12" d="M1079.5,384.2c0.7-1.1,0.8-2.5,0.2-3.7c-0.2-0.4-0.5-0.7-0.9-0.9c-0.5-0.2-1.4,0.8-2.3,1.2
								c0,0-6.6,3.5-6.2,7.6c0.4,4.1,2.1,20.1,2.1,20.1l7.7-3.2C1080.1,405.4,1074.6,392.4,1079.5,384.2z"/>
							<path class="st13" d="M1071.3,382.8c-0.9,2.1-2.1,6.3,0.4,9.4c0,0,8.4,7.3,0.7,17.9l-8.2-10.9c0,0-5-12.6,6.4-17.3
								C1071.1,381.9,1071.5,382.3,1071.3,382.8z"/>
							<path class="st13" d="M1086,388.7c0,0,2.2-2,5.5-1.8c3.7,0.2-3.9,11.2-3.9,11.2s-7.4,10-13.7,12.3l-2.9-1.8
								C1071.1,408.5,1081.9,389.6,1086,388.7z"/>
							<path class="st14" d="M1083.9,382.5c0,0-3.9-0.5-8.5,7.7c0,0-5.3,7.8-5.4,15.3l5.6,3.2c0,0,7-7.7,8.6-13.5
								c1.6-5.8,3.1-9.9,1.6-11.6C1085.8,383.6,1084.9,382.3,1083.9,382.5z"/>
							<path class="st14" d="M1058,398.8c5.2,0,16.3,1.1,17,10.4c0,0-1.3,5.9-7,2.7c0,0-0.4-9.9-10.1-12.5
								C1057.6,399.3,1057.7,398.8,1058,398.8z"/>
							<path class="st15" d="M1087,397.7c-0.7-0.1-0.5-2-0.5-2s-3.2-0.2-5.3,2c-2.1,2.2-10.1,8.7-9.6,15.2l7.8,0.4
								c0,0,13.3-11.4,8.3-11.9C1085.9,401.2,1088.7,397.8,1087,397.7z"/>
							<path class="st16" d="M1094.7,401.6c0,0-12.9-4.1-22.8,11.2c0,0,14.5,1.6,18.7-3.4C1090.5,409.3,1093.9,405.4,1094.7,401.6z"
								/>
							<path class="st15" d="M1068,411.9c0,0,3.5,2.1,5.6,1.6C1075.8,413,1068,411.9,1068,411.9z"/>
						</g>
						<g>
							<path class="st12" d="M690.5,365.2c0,0-2.6,2.3-2.1,4.5l-8,5.3l5.1-9.7C685.5,365.3,687.9,363.4,690.5,365.2z"/>
							<path class="st12" d="M679.6,359.4c0.4-0.7,0.4-1.6,0-2.3c-0.1-0.2-0.3-0.4-0.6-0.5c-0.3-0.1-0.8,0.5-1.4,0.8
								c0,0-4,2.5-3.5,5.1c0.4,2.5,2.3,12.5,2.3,12.5l4.6-2.3C680.9,372.7,676.9,364.8,679.6,359.4z"/>
							<path class="st13" d="M674.4,359c-0.4,1.3-1,4,0.7,5.9c0,0,5.6,4.2,1.2,11.2l-5.7-6.4c0,0-3.7-7.6,3.2-11.1
								C674.2,358.4,674.5,358.7,674.4,359z"/>
							<path class="st13" d="M683.9,362c0,0,1.3-1.4,3.3-1.4c2.3,0-1.9,7.2-1.9,7.2s-4.1,6.6-8,8.3l-1.9-1
								C675.4,375,681.3,362.7,683.9,362z"/>
							<path class="st14" d="M682.2,358.2c0,0-2.4-0.2-5,5.2c0,0-2.9,5.2-2.6,9.8l3.6,1.7c0,0,4-5.1,4.8-8.8s1.5-6.3,0.5-7.3
								C683.5,358.8,682.9,358,682.2,358.2z"/>
							<path class="st14" d="M666.8,369.6c3.2-0.2,10.2-0.1,11.1,5.7c0,0-0.5,3.8-4.2,2c0,0-0.7-6.2-6.9-7.4
								C666.6,369.9,666.6,369.6,666.8,369.6z"/>
							<path class="st15" d="M684.9,367.5c-0.5,0-0.4-1.2-0.4-1.2s-2,0-3.2,1.5c-1.2,1.5-5.9,5.9-5.3,9.9l4.9-0.1
								c0,0,7.8-7.8,4.7-7.8C684.3,369.8,685.9,367.6,684.9,367.5z"/>
							<path class="st16" d="M689.6,369.3c0,0-8.4-1.5-13.3,8.8c0,0,9.2-0.2,11.3-3.7C687.7,374.4,689.5,371.7,689.6,369.3z"/>
							<path class="st15" d="M673.7,377.3c0,0,2.3,1.1,3.6,0.7C678.6,377.6,673.7,377.3,673.7,377.3z"/>
						</g>
						<g>
							<path class="st12" d="M777.5,354.8c0,0-3.5,0.3-4.4,2.3l-9.6-0.6l9.9-4.7C773.4,351.8,776.5,351.7,777.5,354.8z"/>
							<path class="st12" d="M772.2,343.6c0.7-0.4,1.3-1,1.4-1.9c0-0.3,0-0.5-0.2-0.7c-0.2-0.3-1-0.1-1.6-0.2c0,0-4.7-0.4-5.9,1.9
								c-1.2,2.3-5.7,11.3-5.7,11.3l5.1,0.9C765.3,355,766.8,346.3,772.2,343.6z"/>
							<path class="st13" d="M768.4,340.1c-1.2,0.8-3.2,2.6-3,5.1c0,0,2,6.7-5.7,9.7l-0.6-8.5c0,0,1.6-8.4,9.3-6.9
								C768.6,339.5,768.6,339.9,768.4,340.1z"/>
							<path class="st13" d="M774.1,348.2c0,0,1.9-0.3,3.5,0.9c1.9,1.4-5.8,4.6-5.8,4.6s-7.3,2.8-11.4,1.8l-0.9-1.9
								C759.5,353.6,771.6,347.3,774.1,348.2z"/>
							<path class="st14" d="M775.1,344.2c0,0-1.9-1.6-7.1,1.1c0,0-5.5,2.3-8,6.3l1.9,3.6c0,0,6.3-1.7,9.1-4.2
								c2.8-2.5,5-4.2,4.8-5.6C775.7,345.4,775.7,344.4,775.1,344.2z"/>
							<path class="st14" d="M755.9,344c2.7,1.8,8.2,6.1,5.4,11.3c0,0-2.7,2.7-4.6-0.9c0,0,3.1-5.4-1.1-10
								C755.5,344.1,755.8,343.9,755.9,344z"/>
							<path class="st15" d="M771.6,353.3c-0.4-0.3,0.4-1.2,0.4-1.2s-1.7-1.2-3.5-0.8c-1.8,0.4-8.3,1.2-10.2,4.8l4,2.9
								c0,0,10.9-1.5,8.4-3.4C769.8,354.7,772.4,353.9,771.6,353.3z"/>
							<path class="st16" d="M774.3,357.5c0,0-5.8-6.2-15.9-0.9c0,0,7.4,5.4,11.3,3.9C769.7,360.4,772.7,359.4,774.3,357.5z"/>
							<path class="st15" d="M756.8,354.3c0,0,1.1,2.3,2.4,2.7C760.5,357.5,756.8,354.3,756.8,354.3z"/>
						</g>
						<g>
							<path class="st12" d="M1240.9,326c0,0-0.7-3.4-2.9-4.1l-0.7-9.6l6,9.2C1243.3,321.5,1243.8,324.5,1240.9,326z"/>
							<path class="st12" d="M1251.3,319.2c0.5,0.7,1.2,1.1,2,1.1c0.3,0,0.5-0.1,0.7-0.3c0.3-0.3-0.1-1-0.1-1.6c0,0-0.3-4.7-2.7-5.6
								c-2.4-0.8-12-4.1-12-4.1l-0.2,5.2C1239,313.9,1247.9,314.2,1251.3,319.2z"/>
							<path class="st13" d="M1254.2,314.9c-1-1-3-2.8-5.5-2.3c0,0-6.4,2.9-10.4-4.3l8.4-1.8c0,0,8.5,0.5,8.1,8.2
								C1254.8,315,1254.4,315.1,1254.2,314.9z"/>
							<path class="st13" d="M1247,321.7c0,0,0.6,1.8-0.4,3.6c-1.1,2.1-5.3-5.1-5.3-5.1s-3.8-6.8-3.4-11l1.8-1.2
								C1239.7,308,1247.5,319.1,1247,321.7z"/>
							<path class="st14" d="M1251,322.1c0,0,1.3-2.1-2.1-6.9c0,0-3.1-5.1-7.3-7.1l-3.3,2.3c0,0,2.5,6,5.4,8.5s4.8,4.4,6.2,4
								C1249.9,322.9,1250.9,322.7,1251,322.1z"/>
							<path class="st14" d="M1248.6,303.1c-1.4,3-4.9,9-10.4,6.9c0,0-3-2.3,0.3-4.7c0,0,5.7,2.4,9.8-2.4
								C1248.4,302.7,1248.7,302.9,1248.6,303.1z"/>
							<path class="st15" d="M1241.6,319.9c0.2-0.4,1.3,0.2,1.3,0.2s1-1.8,0.3-3.5c-0.7-1.7-2.3-8.1-6.1-9.4l-2.3,4.4
								c0,0,3,10.6,4.6,7.9C1239.9,318.3,1241.1,320.8,1241.6,319.9z"/>
							<path class="st16" d="M1237.8,323.2c0,0,5.3-6.6-1.3-15.9c0,0-4.3,8.1-2.3,11.7C1234.3,319,1235.7,321.8,1237.8,323.2z"/>
							<path class="st15" d="M1238.5,305.3c0,0-2.1,1.4-2.4,2.8C1235.8,309.5,1238.5,305.3,1238.5,305.3z"/>
						</g>
						<g>
							<path class="st12" d="M687.4,270.4c0,0,1.9,4.6,5.1,5.1l3.2,13.4l-10.6-11.6C685.1,277.3,683.7,273.1,687.4,270.4z"/>
							<path class="st12" d="M674.3,282.5c-0.8-0.8-2-1.3-3.1-1.1c-0.4,0.1-0.7,0.3-0.9,0.5c-0.3,0.4,0.3,1.4,0.5,2.3
								c0,0,1.5,6.6,5.1,7.2s18,2.9,18,2.9l-0.9-7.4C692.9,287,680.3,288.7,674.3,282.5z"/>
							<path class="st13" d="M671.2,289.2c1.6,1.2,4.9,3.3,8.3,1.9c0,0,8.3-5.6,15.7,3.7l-11.4,4.6c0,0-12.1,1.4-13.5-9.7
								C670.3,289.3,670.9,288.9,671.2,289.2z"/>
							<path class="st13" d="M679.8,277.9c0,0-1.2-2.4-0.3-5.2c1.1-3.2,8.8,6,8.8,6s6.9,8.8,7.4,14.8l-2.3,2.1
								C693.5,295.6,679.7,281.7,679.8,277.9z"/>
							<path class="st14" d="M674,278.2c0,0-1.4,3.2,4.6,9.2c0,0,5.6,6.5,12,8.3l4.1-4.1c0,0-5-7.9-9.6-10.7
								c-4.6-2.8-7.9-5.1-9.7-4.2C675.4,276.8,674,277.3,674,278.2z"/>
							<path class="st14" d="M681.9,304.6c1.2-4.5,4.8-13.9,13.1-12.3c0,0,4.8,2.5,0.7,6.7c0,0-8.7-2-13.3,5.8
								C682.3,305.1,681.8,304.9,681.9,304.6z"/>
							<path class="st15" d="M687.8,279.1c-0.2,0.6-1.8,0-1.8,0s-0.9,2.8,0.5,5.1c1.4,2.3,5.2,10.9,10.9,11.9l2.2-6.7
								c0,0-6.7-14.3-8.3-10.1C690.6,281,688.4,277.7,687.8,279.1z"/>
							<path class="st16" d="M692.5,273.6c0,0-6,10.6,5.6,22.2c0,0,4.2-12.5,0.4-17.1C698.5,278.7,695.7,275,692.5,273.6z"/>
							<path class="st15" d="M695.7,299c0,0,2.6-2.5,2.7-4.5S695.7,299,695.7,299z"/>
						</g>
						<g>
							<path class="st12" d="M1025.7,523.5c0,0-0.1-9.7-5.7-12.8l3.5-26.6l11.2,28.4C1034.7,512.5,1034.3,521.1,1025.7,523.5z"/>
							<path class="st12" d="M1057.8,510.7c0.9,2.1,2.7,3.8,4.9,4.1c0.8,0.1,1.5,0.1,2.1-0.3c0.9-0.5,0.4-2.7,0.8-4.5
								c0,0,1.9-13-4.3-16.7c-6.2-3.7-30.6-17.9-30.6-17.9l-3.5,14.1C1027.2,489.5,1051.3,495.2,1057.8,510.7z"/>
							<path class="st13" d="M1068.1,500.5c-2-3.4-6.7-9.4-13.7-9.3c0,0-19,4.3-26-17.7l23.9-0.3c0,0,23,6,17.6,27
								C1069.8,501.2,1068.6,501.3,1068.1,500.5z"/>
							<path class="st13" d="M1044.6,515.2c0,0,0.5,5.2-3.1,9.6c-4.1,5-11.8-17-11.8-17s-6.5-20.8-3.1-32l5.6-2.2
								C1032.3,473.5,1047.6,508.4,1044.6,515.2z"/>
							<path class="st14" d="M1055.5,518.6c0,0,4.8-4.9-2-20c0,0-5.6-15.6-16-23.5l-10.3,4.6c0,0,3.6,17.9,10,26.1
								c6.5,8.3,10.7,14.7,14.7,14.3C1052,520.1,1054.9,520.3,1055.5,518.6z"/>
							<path class="st14" d="M1059.5,465.2c-5.4,7.3-18.4,21.8-32.3,13.1c0,0-7-8,3.4-12.7c0,0,14.4,9.6,28.1-1.2
								C1059.2,464.1,1059.8,464.7,1059.5,465.2z"/>
							<path class="st15" d="M1031,507.3c0.9-0.9,3.4,1.3,3.4,1.3s3.6-4.4,2.7-9.6c-0.9-5.2-1.8-23.4-11.5-29.2l-8.7,10.7
								c0,0,2.3,30.6,8.1,24.1C1027.2,502,1029,509.4,1031,507.3z"/>
							<path class="st16" d="M1018.7,514.1c0,0,18.3-15.1,5.4-44.1c0,0-16.2,19.8-12.8,30.7C1011.4,500.7,1013.8,509.3,1018.7,514.1
								z"/>
							<path class="st15" d="M1030.6,465.7c0,0-6.5,2.8-8,6.3C1021,475.5,1030.6,465.7,1030.6,465.7z"/>
						</g>
						<g>
							<path class="st12" d="M1154.3,273.7c0,0,3.2,3.9,6.4,3.3l7.2,11.8l-13.8-7.8C1154.2,281.1,1151.6,277.5,1154.3,273.7z"/>
							<path class="st12" d="M1145.6,289.3c-1-0.6-2.3-0.6-3.3,0c-0.3,0.2-0.6,0.5-0.7,0.8c-0.2,0.5,0.7,1.2,1.2,2.1
								c0,0,3.4,5.9,7.1,5.3c3.7-0.5,18.1-2.7,18.1-2.7l-3.2-6.8C1164.8,288,1153.2,293.5,1145.6,289.3z"/>
							<path class="st13" d="M1144.7,296.8c1.9,0.7,5.7,1.6,8.5-0.7c0,0,6.3-7.9,16.2-1.3l-9.5,7.9c0,0-11.2,5-15.9-5.1
								C1143.8,297.1,1144.2,296.6,1144.7,296.8z"/>
							<path class="st13" d="M1149.4,283.3c0,0-1.9-1.9-1.9-4.9c0-3.4,10.3,3,10.3,3s9.4,6.3,11.7,11.9l-1.5,2.7
								C1167.9,296,1150.4,287,1149.4,283.3z"/>
							<path class="st14" d="M1143.9,285.4c0,0-0.3,3.5,7.3,7.4c0,0,7.3,4.5,14.1,4.3l2.7-5.2c0,0-7.2-6.1-12.5-7.3s-9.1-2.4-10.6-1
								C1144.8,283.6,1143.6,284.5,1143.9,285.4z"/>
							<path class="st14" d="M1159.6,308.2c-0.2-4.7,0.3-14.8,8.8-15.8c0,0,5.4,0.9,2.7,6.2c0,0-8.9,0.8-11,9.6
								C1160.1,308.6,1159.7,308.5,1159.6,308.2z"/>
							<path class="st15" d="M1157.5,282c0,0.7-1.8,0.6-1.8,0.6s0,2.9,2,4.7s8.3,8.8,14.1,8l0-7.1c0,0-10.9-11.6-11.1-7.1
								C1160.7,282.9,1157.6,280.5,1157.5,282z"/>
							<path class="st16" d="M1160.2,275.3c0,0-2.5,12,12.2,19.5c0,0,0.1-13.2-4.8-16.5C1167.5,278.3,1163.7,275.6,1160.2,275.3z"/>
							<path class="st15" d="M1171.1,298.6c0,0,1.7-3.2,1.2-5.1C1171.8,291.6,1171.1,298.6,1171.1,298.6z"/>
						</g>
						<g>
							<path class="st12" d="M1100.2,305.5c0,0-2.6,2.3-2.1,4.5l-8,5.3l5.1-9.7C1095.1,305.6,1097.6,303.7,1100.2,305.5z"/>
							<path class="st12" d="M1089.3,299.8c0.4-0.7,0.4-1.6,0-2.3c-0.1-0.2-0.3-0.4-0.6-0.5c-0.3-0.1-0.8,0.5-1.4,0.8
								c0,0-4,2.5-3.5,5.1c0.4,2.5,2.3,12.5,2.3,12.5l4.6-2.3C1090.6,313,1086.6,305.2,1089.3,299.8z"/>
							<path class="st13" d="M1084.1,299.3c-0.4,1.3-1,4,0.7,5.9c0,0,5.6,4.2,1.2,11.2l-5.7-6.4c0,0-3.7-7.6,3.2-11.1
								C1083.9,298.7,1084.2,299,1084.1,299.3z"/>
							<path class="st13" d="M1093.5,302.3c0,0,1.3-1.4,3.3-1.4c2.3,0-1.9,7.2-1.9,7.2s-4.1,6.6-8,8.3l-1.9-1
								C1085.1,315.4,1091,303.1,1093.5,302.3z"/>
							<path class="st14" d="M1091.9,298.5c0,0-2.4-0.2-5,5.2c0,0-2.9,5.2-2.6,9.8l3.6,1.7c0,0,4-5.1,4.8-8.8s1.5-6.3,0.5-7.3
								C1093.2,299.1,1092.6,298.3,1091.9,298.5z"/>
							<path class="st14" d="M1076.5,309.9c3.2-0.2,10.2-0.1,11.1,5.7c0,0-0.5,3.8-4.2,2c0,0-0.7-6.2-6.9-7.4
								C1076.3,310.2,1076.3,309.9,1076.5,309.9z"/>
							<path class="st15" d="M1094.6,307.9c-0.5,0-0.4-1.2-0.4-1.2s-2,0-3.2,1.5c-1.2,1.5-5.9,5.9-5.3,9.9l4.9-0.1
								c0,0,7.8-7.8,4.7-7.8C1094,310.1,1095.6,307.9,1094.6,307.9z"/>
							<path class="st16" d="M1099.3,309.6c0,0-8.4-1.5-13.3,8.8c0,0,9.2-0.2,11.3-3.7C1097.4,314.7,1099.2,312,1099.3,309.6z"/>
							<path class="st15" d="M1083.4,317.7c0,0,2.3,1.1,3.6,0.7C1088.3,318,1083.4,317.7,1083.4,317.7z"/>
						</g>
						<g>
							<path class="st12" d="M1287.8,366.5c0,0,1.7,4.7,5,5.3l2.9,13.7l-10.4-12.1C1285.2,373.5,1283.9,369.2,1287.8,366.5z"/>
							<path class="st12" d="M1274.2,378.4c-0.8-0.9-2-1.4-3.1-1.2c-0.4,0.1-0.8,0.2-1,0.5c-0.3,0.4,0.3,1.4,0.4,2.4
								c0,0,1.3,6.7,5,7.5c3.7,0.7,18.1,3.5,18.1,3.5l-0.7-7.5C1292.9,383.6,1280,384.9,1274.2,378.4z"/>
							<path class="st13" d="M1270.8,385.1c1.6,1.3,4.9,3.5,8.3,2.2c0,0,8.6-5.4,15.8,4.2l-11.7,4.3c0,0-12.4,1-13.3-10.3
								C1269.9,385.1,1270.4,384.8,1270.8,385.1z"/>
							<path class="st13" d="M1279.9,373.9c0,0-1.2-2.5-0.1-5.3c1.2-3.2,8.7,6.4,8.7,6.4s6.8,9.1,7,15.2l-2.4,2.1
								C1293.1,392.3,1279.6,377.8,1279.9,373.9z"/>
							<path class="st14" d="M1273.9,374.1c0,0-1.5,3.2,4.4,9.5c0,0,5.4,6.7,11.9,8.8l4.3-4c0,0-4.8-8.2-9.4-11.2
								c-4.6-3-7.8-5.4-9.7-4.5C1275.4,372.7,1273.9,373.1,1273.9,374.1z"/>
							<path class="st14" d="M1281.1,401c1.4-4.5,5.3-13.9,13.7-12c0,0,4.8,2.7,0.5,6.8c0,0-8.8-2.3-13.7,5.4
								C1281.5,401.6,1281,401.4,1281.1,401z"/>
							<path class="st15" d="M1287.9,375.5c-0.3,0.6-1.9-0.1-1.9-0.1s-1,2.8,0.3,5.2c1.3,2.4,4.9,11.2,10.7,12.4l2.4-6.7
								c0,0-6.4-14.7-8.1-10.5C1290.7,377.4,1288.6,374.1,1287.9,375.5z"/>
							<path class="st16" d="M1292.8,370c0,0-6.4,10.6,4.9,22.7c0,0,4.6-12.5,1-17.3C1298.7,375.3,1296,371.5,1292.8,370z"/>
							<path class="st15" d="M1295.3,395.9c0,0,2.7-2.5,2.9-4.5C1298.3,389.4,1295.3,395.9,1295.3,395.9z"/>
						</g>
						<g>
							<path class="st12" d="M1345.6,270c0,0-6.7,6.9-5,13.1l-21.2,16.3l12.1-28C1331.5,271.3,1337.8,265.6,1345.6,270z"/>
							<path class="st12" d="M1313.9,256.4c0.9-2.1,0.8-4.5-0.6-6.4c-0.5-0.6-1-1.1-1.7-1.3c-1-0.2-2.2,1.7-3.7,2.6
								c0,0-10.6,7.8-8.8,14.8c1.8,7,9,34.3,9,34.3l12.4-7.5C1320.5,293,1307.5,271.9,1313.9,256.4z"/>
							<path class="st13" d="M1299.4,256.2c-0.9,3.8-1.9,11.4,3.1,16.2c0,0,16.4,10.4,5.9,30.8l-17.1-16.7c0,0-12-20.5,6.6-31.5
								C1298.6,254.6,1299.6,255.3,1299.4,256.2z"/>
							<path class="st13" d="M1326.3,262.5c0,0,3.3-4.1,9-4.6c6.4-0.6-3.7,20.4-3.7,20.4s-10.1,19.3-20.4,24.8l-5.5-2.3
								C1305.7,300.7,1319.5,265.2,1326.3,262.5z"/>
							<path class="st14" d="M1321.1,252.4c0,0-6.8,0.1-12.8,15.5c0,0-7.1,15-5.3,27.9l10.5,4c0,0,10.1-15.2,11.4-25.6
								c1.3-10.4,2.8-18-0.3-20.5C1324.6,253.7,1322.7,251.6,1321.1,252.4z"/>
							<path class="st14" d="M1280.6,287.3c9-1.4,28.4-2.4,32.1,13.6c0,0-0.7,10.6-11.4,6.5c0,0-3.4-17-20.8-19
								C1280,288.3,1279.9,287.4,1280.6,287.3z"/>
							<path class="st15" d="M1330.4,277.7c-1.3,0-1.5-3.3-1.5-3.3s-5.7,0.6-8.7,4.8c-3,4.3-15.2,17.8-12.5,28.8l13.7-1.4
								c0,0,20.1-23.3,11.3-22.7C1329.3,284.1,1333.3,277.6,1330.4,277.7z"/>
							<path class="st16" d="M1343.9,281.6c0,0-23.6-2.3-35,27.4c0,0,25.5-2.5,30.7-12.7C1339.6,296.3,1344,288.4,1343.9,281.6z"/>
							<path class="st15" d="M1301.3,307.4c0,0,6.5,2.6,10.1,1.2C1315,307.2,1301.3,307.4,1301.3,307.4z"/>
						</g>
						<g>
							<path class="st12" d="M1234.7,417.1c0,0,2.6,8.1,8.1,9.2l4,23.2l-16.8-20.9C1230,428.7,1228.1,421.4,1234.7,417.1z"/>
							<path class="st12" d="M1211.1,436.2c-1.3-1.5-3.2-2.5-5.2-2.2c-0.7,0.1-1.3,0.3-1.7,0.8c-0.6,0.7,0.4,2.4,0.5,4
								c0,0,1.8,11.4,7.9,12.9c6.2,1.5,30.3,7,30.3,7l-0.7-12.7C1242.3,446.1,1220.6,447.6,1211.1,436.2z"/>
							<path class="st13" d="M1205.1,447.4c2.6,2.3,8,6.1,13.9,4.2c0,0,14.8-8.5,26.4,8.1l-20,6.5c0,0-20.8,0.9-21.8-18.1
								C1203.5,447.4,1204.5,446.9,1205.1,447.4z"/>
							<path class="st13" d="M1221,429.1c0,0-1.8-4.3,0.1-8.9c2.2-5.3,14.3,11.2,14.3,11.2s10.8,15.8,10.9,26.1l-4.1,3.3
								C1242.2,460.8,1220.3,435.5,1221,429.1z"/>
							<path class="st14" d="M1211,429c0,0-2.7,5.4,6.8,16.3c0,0,8.7,11.7,19.5,15.5l7.4-6.5c0,0-7.6-14.1-15.2-19.3
								c-7.6-5.3-12.8-9.6-16.1-8.2C1213.5,426.8,1211.1,427.4,1211,429z"/>
							<path class="st14" d="M1221.5,474.8c2.6-7.5,9.8-23.1,23.7-19.4c0,0,8,4.9,0.4,11.5c0,0-14.6-4.4-23.3,8.3
								C1222,475.7,1221.3,475.3,1221.5,474.8z"/>
							<path class="st15" d="M1234.5,432.1c-0.5,1-3.2-0.2-3.2-0.2s-1.9,4.6,0.2,8.7s7.6,19.1,17.2,21.5l4.5-11.2
								c0,0-9.9-25.1-13-18.1C1239,435.6,1235.6,429.8,1234.5,432.1z"/>
							<path class="st16" d="M1243,423.2c0,0-11.4,17.4,6.9,38.4c0,0,8.5-20.8,2.7-29.1C1252.7,432.6,1248.4,425.9,1243,423.2z"/>
							<path class="st15" d="M1245.7,466.9c0,0,4.7-4,5.1-7.4C1251.1,456.2,1245.7,466.9,1245.7,466.9z"/>
						</g>
						<g>
							<path class="st12" d="M555.3,343.8c0,0-1,8.5,3.5,11.8l-6,22.8l-6.6-26C546.2,352.4,547.5,345,555.3,343.8z"/>
							<path class="st12" d="M526,351.4c-0.5-1.9-1.9-3.6-3.8-4.1c-0.7-0.2-1.3-0.2-1.9,0c-0.8,0.4-0.6,2.3-1.2,3.9
								c0,0-3.1,11.1,1.8,15c5,3.9,24.7,19,24.7,19l4.6-11.9C550.2,373.3,529.9,365.7,526,351.4z"/>
							<path class="st13" d="M515.8,359.1c1.4,3.2,4.8,8.9,10.9,9.6c0,0,17-1.6,20.6,18.3l-20.9-2.4c0,0-19.4-7.8-12.4-25.5
								C514.4,358.4,515.5,358.4,515.8,359.1z"/>
							<path class="st13" d="M537.9,349c0,0,0.1-4.6,3.8-8.1c4.1-3.9,8.3,16.2,8.3,16.2s3.3,18.8-0.9,28.2l-5.1,1.3
								C544,386.7,534.6,354.6,537.9,349z"/>
							<path class="st14" d="M528.8,344.8c0,0-4.7,3.7-0.5,17.6c0,0,3.1,14.2,11.3,22.3l9.4-2.8c0,0-1.1-16-5.8-23.9
								c-4.7-7.9-7.7-14-11.2-14.1C532,343.8,529.6,343.4,528.8,344.8z"/>
							<path class="st14" d="M519.4,390.8c5.5-5.8,18.5-16.9,29.7-7.8c0,0,5.2,7.8-4.4,10.6c0,0-11.5-10-24.7-2.1
								C519.5,391.8,519,391.2,519.4,390.8z"/>
							<path class="st15" d="M548.9,357.4c-0.9,0.7-2.8-1.5-2.8-1.5s-3.6,3.4-3.4,8c0.2,4.6-1.1,20.6,6.7,26.8l8.7-8.3
								c0,0,1.5-27-4.4-21.9C551.6,362.4,550.9,355.7,548.9,357.4z"/>
							<path class="st16" d="M560.4,352.8c0,0-17.7,11.1-9.6,37.9c0,0,16.4-15.4,14.6-25.3C565.3,365.3,564.1,357.5,560.4,352.8z"/>
							<path class="st15" d="M544.6,393.7c0,0,6-1.7,7.7-4.6C554.1,386.2,544.6,393.7,544.6,393.7z"/>
						</g>
						<g>
							<path class="st12" d="M1412.5,385.2c0,0-3.4,0.7-4.1,2.9l-9.6,0.6l9.2-5.9C1408,382.7,1411,382.3,1412.5,385.2z"/>
							<path class="st12" d="M1405.8,374.8c0.7-0.5,1.1-1.2,1.1-2c0-0.3-0.1-0.5-0.3-0.7c-0.2-0.3-1,0.1-1.6,0c0,0-4.7,0.2-5.6,2.6
								s-4.2,12-4.2,12l5.2,0.3C1400.4,386.9,1400.8,378.1,1405.8,374.8z"/>
							<path class="st13" d="M1401.5,371.8c-1,0.9-2.9,3-2.3,5.4c0,0,2.8,6.4-4.5,10.3l-1.7-8.4c0,0,0.6-8.5,8.3-8
								C1401.6,371.2,1401.8,371.6,1401.5,371.8z"/>
							<path class="st13" d="M1408.2,379.1c0,0,1.8-0.5,3.6,0.4c2,1.1-5.2,5.3-5.2,5.3s-6.9,3.7-11.1,3.3l-1.2-1.8
								C1394.4,386.3,1405.7,378.5,1408.2,379.1z"/>
							<path class="st14" d="M1408.7,375c0,0-2-1.3-6.9,2c0,0-5.1,3-7.2,7.2l2.3,3.3c0,0,6.1-2.5,8.5-5.3c2.5-2.8,4.4-4.8,4-6.1
								C1409.5,376.1,1409.4,375.1,1408.7,375z"/>
							<path class="st14" d="M1389.7,377.2c2.9,1.4,8.9,5,6.8,10.5c0,0-2.3,3-4.7-0.4c0,0,2.4-5.7-2.3-9.8
								C1389.3,377.4,1389.5,377.1,1389.7,377.2z"/>
							<path class="st15" d="M1406.4,384.4c-0.4-0.2,0.2-1.3,0.2-1.3s-1.8-1-3.5-0.3c-1.8,0.7-8.1,2.2-9.5,6l4.3,2.3
								c0,0,10.6-2.9,7.9-4.5C1404.8,386.1,1407.3,385,1406.4,384.4z"/>
							<path class="st16" d="M1409.6,388.3c0,0-6.6-5.4-15.9,1.1c0,0,8.1,4.4,11.7,2.4C1405.4,391.8,1408.3,390.3,1409.6,388.3z"/>
							<path class="st15" d="M1391.8,387.4c0,0,1.4,2.1,2.8,2.4C1395.9,390.1,1391.8,387.4,1391.8,387.4z"/>
						</g>
						<g>
							<path class="st12" d="M1314,460.6c0,0,3.4-0.7,4.1-2.9l9.6-0.6l-9.2,5.9C1318.4,463,1315.4,463.4,1314,460.6z"/>
							<path class="st12" d="M1320.7,471c-0.7,0.5-1.1,1.2-1.1,2c0,0.3,0.1,0.5,0.3,0.7c0.2,0.3,1-0.1,1.6,0c0,0,4.7-0.2,5.6-2.6
								s4.2-12,4.2-12l-5.2-0.3C1326.1,458.8,1325.7,467.6,1320.7,471z"/>
							<path class="st13" d="M1324.9,473.9c1-0.9,2.9-3,2.3-5.4c0,0-2.8-6.4,4.5-10.3l1.7,8.4c0,0-0.6,8.5-8.3,8
								C1324.8,474.6,1324.7,474.2,1324.9,473.9z"/>
							<path class="st13" d="M1318.2,466.7c0,0-1.8,0.5-3.6-0.4c-2-1.1,5.2-5.3,5.2-5.3s6.9-3.7,11.1-3.3l1.2,1.8
								C1332,459.5,1320.8,467.2,1318.2,466.7z"/>
							<path class="st14" d="M1317.7,470.7c0,0,2,1.3,6.9-2c0,0,5.1-3,7.2-7.2l-2.3-3.3c0,0-6.1,2.5-8.5,5.3c-2.5,2.8-4.4,4.8-4,6.1
								C1316.9,469.6,1317.1,470.6,1317.7,470.7z"/>
							<path class="st14" d="M1336.8,468.5c-2.9-1.4-8.9-5-6.8-10.5c0,0,2.3-3,4.7,0.4c0,0-2.4,5.7,2.3,9.8
								C1337.1,468.3,1337,468.6,1336.8,468.5z"/>
							<path class="st15" d="M1320,461.3c0.4,0.2-0.2,1.3-0.2,1.3s1.8,1,3.5,0.3c1.8-0.7,8.1-2.2,9.5-6l-4.3-2.3
								c0,0-10.6,2.9-7.9,4.5C1321.7,459.6,1319.2,460.8,1320,461.3z"/>
							<path class="st16" d="M1316.8,457.5c0,0,6.6,5.4,15.9-1.1c0,0-8.1-4.4-11.7-2.4C1321,454,1318.2,455.4,1316.8,457.5z"/>
							<path class="st15" d="M1334.6,458.4c0,0-1.4-2.1-2.8-2.4C1330.5,455.7,1334.6,458.4,1334.6,458.4z"/>
						</g>
					</g>
				</g>
				<g>
					<defs>
						<path id="SVGID_1_" d="M1451.7,412.6l-50.1-139.2c-9.9-27.6-36.7-46.1-66.6-46.1H584.5c-30,0-56.7,18.5-66.6,46.1l-50.1,139.2
							h0.7v132.3h983.8V412.6H1451.7z"/>
					</defs>
					<clipPath id="SVGID_2_">
						<use xlink:href="#SVGID_1_"  style="overflow:visible;"/>
					</clipPath>
					<g style="clip-path:url(#SVGID_2_);">
						
							<image style="overflow:visible;" width="41" height="40" xlink:href="6C18931E06336F76.png"  transform="matrix(1 0 0 1 1169 201)">
						</image>
					</g>
				</g>
				<g>
					<defs>
						<path id="SVGID_3_" d="M1451.7,412.6l-50.1-139.2c-9.9-27.6-36.7-46.1-66.6-46.1H584.5c-30,0-56.7,18.5-66.6,46.1l-50.1,139.2
							h0.7v132.3h983.8V412.6H1451.7z"/>
					</defs>
					<clipPath id="SVGID_4_">
						<use xlink:href="#SVGID_3_"  style="overflow:visible;"/>
					</clipPath>
					<g style="clip-path:url(#SVGID_4_);">
						
							<image style="overflow:visible;" width="40" height="41" xlink:href="6C18931E06336F72.png"  transform="matrix(1 0 0 1 945 527)">
						</image>
					</g>
				</g>
				<g>
					<defs>
						<path id="SVGID_5_" d="M1451.7,412.6l-50.1-139.2c-9.9-27.6-36.7-46.1-66.6-46.1H584.5c-30,0-56.7,18.5-66.6,46.1l-50.1,139.2
							h0.7v132.3h983.8V412.6H1451.7z"/>
					</defs>
					<clipPath id="SVGID_6_">
						<use xlink:href="#SVGID_5_"  style="overflow:visible;"/>
					</clipPath>
					<g style="clip-path:url(#SVGID_6_);">
						
							<image style="overflow:visible;" width="41" height="41" xlink:href="6C18931E06336F71.png"  transform="matrix(1 0 0 1 1217 533)">
						</image>
					</g>
				</g>
			</g>
			<path class="st7" d="M1531.1,997.7l-105-458c-0.7-3-2-5.7-3.8-8v463.5c0,3,2.4,5.4,5.4,5.4h98.5
				C1528.4,1000.6,1530.2,999.4,1531.1,997.7z"/>
			<path class="st7" d="M497.6,1000.6H388.2V413.9h0c60.2,0,109.4,49.2,109.4,109.4V1000.6z"/>
			<path class="st8" d="M497.6,531.7v-5.5c-5,2.9-8.8,7.7-10.2,13.6l-99.2,426.7v34.2l105.6-460.9
				C494.5,536.7,495.8,534,497.6,531.7z"/>
			<path class="st7" d="M1432.9,539.7l98.9,425.5V419.3c0-3-2.4-5.4-5.4-5.4l0,0c-57.2,0-104,46.8-104,104v8.1
				C1427.6,528.8,1431.5,533.7,1432.9,539.7z"/>
			<path class="st8" d="M1426.2,539.7l105,458c0.4-0.8,0.7-1.6,0.7-2.5v-30l-98.9-425.5c-1.4-6-5.3-10.9-10.5-13.8v5.7
				C1424.2,534,1425.5,536.7,1426.2,539.7z"/>
		</g>
		<path class="st7" d="M1422.4,995.2V531.7c-3.9-5.1-10.1-8.4-16.8-8.4H514.4c-6.8,0-12.9,3.2-16.8,8.4v469h930.2
			C1424.8,1000.6,1422.4,998.2,1422.4,995.2z"/>
		<g>
			<defs>
				<path id="SVGID_7_" d="M1422.4,995.2V531.7c-3.9-5.1-10.1-8.4-16.8-8.4H514.4c-6.8,0-12.9,3.2-16.8,8.4v469h930.2
					C1424.8,1000.6,1422.4,998.2,1422.4,995.2z"/>
			</defs>
			<clipPath id="SVGID_8_">
				<use xlink:href="#SVGID_7_"  style="overflow:visible;"/>
			</clipPath>
			<g id="stamp" class="st17">
				<path class="st18" d="M1019.7,509.5c1.5-5.5-0.1-11.5-4.9-15.8c-4.3-3.8-9.4-4.2-14.6-5.6c-6.6-1.8-12.5-5.1-19.1-6.9
					c-15.7-4.2-37.6,3-48,15.5c-12.6,15.3-16.4,39.3-14.6,58.3c1.9,20.6,11.6,40.1,29.7,50.9c1.6,1,3.2,1.4,4.7,1.4
					c8.8,5.2,19.2,8.3,30.2,8.3c32.8,0,59.3-26.6,59.3-59.3C1042.4,537.2,1033.5,520.4,1019.7,509.5z"/>
				<circle class="st5" cx="983.2" cy="555.2" r="60.3"/>
				
					<image style="overflow:visible;" width="120" height="120" xlink:href="6C18931E06336F8E.png"  transform="matrix(1 0 0 1 923 496)">
				</image>
				<circle class="st4" cx="983.1" cy="556.2" r="59.3"/>
				
					<image style="overflow:visible;" width="120" height="120" xlink:href="6C18931E06336F91.png"  transform="matrix(1 0 0 1 923 496)">
				</image>
				<g>
					<path class="st19" d="M1014.8,531.6c0-0.2-0.1-0.3-0.3-0.3c-2.5,0-12.3,9.8-21.5,19.6c-8.3,8.8-15.7,17.6-18.5,17.6
						c-0.9,0-1.5-0.5-1.5-1.7c0-6.3,18.5-23.5,18.5-30.5c0-0.6-0.3-1.1-1.1-1.1c-3.5,0-11.5,8.3-19.5,16.9
						c-8.5,9.2-15.7,18.8-19.1,18.8c-1,0-1.7-0.5-1.7-1.7c0-6.9,23.9-29.3,23.9-35.9c0-0.8-0.6-1.4-2-1.4c-5,0-14.2,7.6-20.8,15.3
						c-0.5,0.5-0.9,0.7-1.2,0.7c-0.3,0-0.5-0.2-0.5-0.5c0-1.4,14.8-16.9,22.8-16.9c1.8,0,3.3,1.1,3.3,3.1c0,7.4-23.7,29.8-23.7,35
						c0,0.3,0.2,0.5,0.5,0.5c2,0,9.2-9.2,17.6-18.3c8.1-8.7,16.9-17.2,21.2-17.2c1.1,0,2.1,0.8,2.1,2.6c0,7.2-18.6,25.6-18.6,30
						c0,0.4,0.2,0.5,0.4,0.5c1.4,0,8.7-8.2,17-17c9.1-9.7,19.4-20.2,23.5-20.2c0.7,0,1.1,0.5,1.1,1.1c0,5.3-20,21-20,32
						c0,3.3,2.3,4.2,4.1,4.2c2.9,0,6.4-2.9,9.9-8.2c0.2-0.3,0.4-0.4,0.5-0.4c0.3,0,0.5,0.3,0.5,0.6c0,0.3-0.6,1.3-1.6,2.7
						c-2.1,2.7-5.8,6.6-9.6,6.6c-2.6,0-5.6-1.5-5.6-5.9C994.9,551.7,1014.8,534.4,1014.8,531.6z"/>
				</g>
				<g>
					<path class="st19" d="M995.4,573.5c-1.1,0-2-0.2-1.9-0.6c0-0.4,1.2-0.4,1.3-0.4c7.8,0,17.2-4.3,17.2-10.8c0-2.4-2.1-4.4-6-4.4
						c-10.3,0-25.5,12-25.5,24.3c0,6.3,4.4,9.6,10.5,9.6c5.5,0,11.2-3.7,15.6-10.2c0.2-0.3,0.4-0.5,0.6-0.5c0.2,0,0.3,0.1,0.3,0.4
						c0,0.3-0.7,1.6-1.9,3c-2.7,3.3-8.1,8.1-15,8.1c-6.7,0-11.8-3.5-11.8-10.7c0-13,16.3-24.9,27.1-24.9c4.8,0,7.1,2.4,7.1,5.2
						C1013.1,569.3,1002.2,573.5,995.4,573.5z"/>
				</g>
			</g>
		</g>
	</g>
</g>
<g id="Layer_2_copy">
	<polygon class="st9" points="468.5,412.6 468.5,544.9 1452.2,544.9 1452.2,412.6 1451.7,412.6 	"/>
	<path class="st9" d="M1452,413"/>
</g>
<g id="Layer_1_copy">
	<rect x="388.2" y="413.9" class="st6" width="1143.6" height="586.7"/>
	<g>
		<path class="st7" d="M497.6,526.1v-2.8c0-60.2-49.2-109.4-109.4-109.4l0,0v552.5l99.2-426.7C488.7,533.8,492.6,529,497.6,526.1z"
			/>
		<path class="st8" d="M514.4,523.3h-6.2c-3.9,0-7.5,1-10.7,2.8v5.5C501.5,526.5,507.7,523.3,514.4,523.3z"/>
		<path class="st8" d="M1422.4,531.7v-5.7c-3.1-1.7-6.6-2.6-10.4-2.6h-6.5C1412.3,523.3,1418.5,526.5,1422.4,531.7z"/>
		<path class="st7" d="M1526.4,1000.6h5.4l-0.7-2.9C1530.2,999.4,1528.4,1000.6,1526.4,1000.6z"/>
		<path class="st7" d="M1422.4,995.2V531.7c-3.9-5.1-10.1-8.4-16.8-8.4H514.4c-6.8,0-12.9,3.2-16.8,8.4v469h930.2
			C1424.8,1000.6,1422.4,998.2,1422.4,995.2z"/>
		<path class="st7" d="M493.8,539.7l-105.6,460.9h109.4v-469C495.8,534,494.5,536.7,493.8,539.7z"/>
	</g>
	<polygon class="st9" points="468.5,412.6 468.5,544.9 1452.2,544.9 1452.2,412.6 1451.7,412.6 	"/>
	<g>
		<path class="st10" d="M970.1,540.3c-69.3,1.1-116.9-31.2-144.5-58.3c-20.4-20-37.2-44.5-49.2-70.3h-8.7c12.5,28,30.5,54.5,52.4,76
			c31,30.4,68,49.8,108.7,57.2h45.4C974.4,542.4,972.5,540.3,970.1,540.3z"/>
	</g>
	<g>
		<path class="st10" d="M973,411.7h-8.9c1.3,2.5,2.5,5.1,3.6,7.7c0.6,1.5,2.1,2.4,3.7,2.4c0.5,0,1.1-0.1,1.6-0.3
			c2-0.9,2.9-3.2,2.1-5.2C974.3,414.7,973.7,413.2,973,411.7z"/>
	</g>
	<image style="overflow:visible;" width="41" height="41" xlink:href="6C18931E06336F92.png"  transform="matrix(1 0 0 1 859 424)">
	</image>
	<g>
		<path class="st10" d="M1236.2,411.7h-9.8c20.3,27.2,33.4,55.8,38.8,79.5c0.4,1.8,2.1,3.1,3.9,3.1c0.3,0,0.6,0,0.9-0.1
			c2.1-0.5,3.5-2.6,3-4.8C1267.6,466.2,1255.2,438.4,1236.2,411.7z"/>
	</g>
	<path class="st10" d="M1136.8,411.7c-50.6,37.3-108.2,60-151.9,57.4c-2.2-0.1-4.1,1.5-4.2,3.7c-0.1,2.2,1.5,4.1,3.7,4.2
		c2.5,0.1,5,0.2,7.6,0.2c47.6,0,106.8-25.2,158.2-65.6H1136.8z"/>
	<g>
		<path class="st11" d="M1308.1,411.7h-24c-9.8,11-18.3,23.2-25,36c-1.8,3.5-3.5,7.1-5.1,10.6c1.7,0.3,3.1,1.7,3.3,3.5
			c0.2,2.2-1.4,4.1-3.5,4.4c-1,0.1-2.1,0.3-3.1,0.4c-9.2,24.4-12.8,50.9-10.8,78.6h187.3c-5.6-2.9-11.1-6-16.6-9.4
			C1359,503.6,1324,453.8,1308.1,411.7z"/>
		<path class="st11" d="M968.4,417c-82.9,17.3-154.5,66.2-187.8,128.2h188.1C957.2,508.2,956.9,464.3,968.4,417z"/>
		<path class="st11" d="M1241.8,468.1c-26.9,5.3-56.9,18.8-80.8,36.8c-11.3,8.5-27.1,22.6-36.6,40.3H1232
			C1230.1,518.1,1233.4,492.2,1241.8,468.1z"/>
		<path class="st10" d="M1316.6,411.7h-8.5c15.9,42.1,50.9,91.9,102.5,124.1c5.5,3.4,11,6.5,16.6,9.4h18.9
			c-10.6-4.4-21.1-9.8-31.3-16.1C1365.9,498.5,1332.4,451.8,1316.6,411.7z"/>
		<path class="st10" d="M1273.5,411.7c-8.2,10-15.4,20.9-21.4,32.4c-2.6,5-5,10.2-7.1,15.4c2.7-0.4,5.4-0.8,8-1.1c0.4,0,0.7,0,1.1,0
			c1.6-3.6,3.2-7.2,5.1-10.6c6.7-12.9,15.1-25,25-36H1273.5z"/>
		<path class="st10" d="M1250.8,466.6c-3,0.4-5.9,0.9-9,1.4c-8.4,24.1-11.7,50.1-9.8,77.1h8C1238,517.5,1241.6,491,1250.8,466.6z"/>
		<path class="st10" d="M955.8,411.7c-81.3,19.9-150.8,69.5-183.3,131.7c-0.3,0.6-0.4,1.2-0.4,1.8h8.5
			c33.3-62,104.9-110.9,187.8-128.2c0.4-1.8,0.9-3.5,1.3-5.3H955.8z"/>
		<path class="st10" d="M977,415.3c9.4-1.7,18.7-2.9,27.7-3.6h-26.8C977.6,412.9,977.3,414.1,977,415.3z"/>
		<path class="st10" d="M1086.1,411.7H1045c32.1,2.8,59.7,12.7,79.8,29.3c1.7,1.4,4.2,1.1,5.6-0.6c1.4-1.7,1.1-4.2-0.6-5.6
			C1117.6,424.7,1102.8,417,1086.1,411.7z"/>
		<path class="st10" d="M1257.4,461.9c-0.2-1.8-1.6-3.2-3.3-3.5c-1.2,2.7-2.3,5.5-3.3,8.3c1-0.1,2.1-0.3,3.1-0.4
			C1256,466,1257.6,464,1257.4,461.9z"/>
		<path class="st10" d="M1161,504.9c23.9-18,53.9-31.5,80.8-36.8c1-2.9,2.1-5.8,3.3-8.6c-29.3,4.8-62.6,19.4-88.8,39.1
			c-19.3,14.5-33,30.4-40.7,46.6h8.9C1133.9,527.5,1149.7,513.4,1161,504.9z"/>
		<path class="st10" d="M1250.8,466.6c1-2.8,2.2-5.5,3.3-8.3c-0.3-0.1-0.7-0.1-1.1,0c-2.6,0.3-5.3,0.7-8,1.1
			c-1.2,2.9-2.2,5.7-3.3,8.6C1244.8,467.5,1247.8,467,1250.8,466.6z"/>
		<path class="st10" d="M968.4,417c-11.4,47.3-11.2,91.2,0.3,128.2h8.3c-12.2-37-12.3-81.6-0.1-129.9c-2.4,0.4-4.8,0.9-7.2,1.4
			C969.3,416.8,968.9,416.9,968.4,417z"/>
		<path class="st10" d="M969.7,411.7c-0.5,1.8-0.9,3.5-1.3,5.3c0.5-0.1,1-0.2,1.4-0.3c2.4-0.5,4.8-0.9,7.2-1.4
			c0.3-1.2,0.6-2.4,0.9-3.6H969.7z"/>
	</g>
	
		<image style="overflow:visible;" width="41" height="41" xlink:href="6C18931E06336F93.png"  transform="matrix(1 0 0 1 1344 467)">
	</image>
	<image style="overflow:visible;" width="40" height="41" xlink:href="6C18931E06336F95.png"  transform="matrix(1 0 0 1 585 449)">
	</image>
	
		<image style="overflow:visible;" width="41" height="40" xlink:href="6C18931E06336F97.png"  transform="matrix(1 0 0 1 1132 479)">
	</image>
	<g>
		<path class="st10" d="M687,411.7c-12.8,11.9-27.1,22.8-42.8,32.5c-58.9,36.5-126,48.6-175.2,31.6c-0.2-0.1-0.5-0.1-0.8-0.2v8.3
			c15,4.9,31.5,7.4,48.9,7.4c41.9,0,88.7-14,131.2-40.4c18.7-11.6,35.4-24.8,50-39.3H687z"/>
		<path class="st10" d="M468.3,434.6c7.9-7.3,19.1-15.1,34.8-23h-16.5c-6.9,4.1-13.1,8.3-18.3,12.6V434.6z"/>
	</g>
	<g>
		<path class="st12" d="M667,412.8c0,0,0.9,4.5,3.7,5.4l0.7,12.6l-7.6-12.2C663.7,418.6,663.2,414.7,667,412.8z"/>
		<path class="st12" d="M653.2,421.5c-0.6-0.9-1.6-1.5-2.6-1.5c-0.4,0-0.7,0.1-0.9,0.3c-0.4,0.3,0.1,1.3,0,2.2c0,0,0.2,6.2,3.4,7.4
			c3.2,1.2,15.7,5.7,15.7,5.7l0.4-6.8C669.2,428.7,657.5,428.1,653.2,421.5z"/>
		<path class="st13" d="M649.2,427.1c1.2,1.4,3.9,3.8,7.1,3.1c0,0,8.4-3.6,13.5,6l-11.1,2.2c0,0-11.2-0.8-10.5-11
			C648.4,426.9,648.9,426.7,649.2,427.1z"/>
		<path class="st13" d="M658.9,418.3c0,0-0.7-2.4,0.6-4.7c1.5-2.7,6.9,6.9,6.9,6.9s4.8,9.1,4.2,14.6l-2.4,1.5
			C668.2,436.5,658.1,421.7,658.9,418.3z"/>
		<path class="st14" d="M653.5,417.6c0,0-1.8,2.7,2.6,9.1c0,0,3.9,6.8,9.4,9.5l4.4-3c0,0-3.2-8-6.9-11.3c-3.7-3.3-6.2-5.9-8.1-5.4
			C655,416.6,653.7,416.8,653.5,417.6z"/>
		<path class="st14" d="M656.3,442.7c1.9-3.8,6.7-11.7,13.9-8.8c0,0,3.9,3.1-0.5,6.2c0,0-7.5-3.2-13,3
			C656.5,443.2,656.1,443,656.3,442.7z"/>
		<path class="st15" d="M665.9,420.8c-0.3,0.5-1.7-0.3-1.7-0.3s-1.3,2.3-0.4,4.7c0.9,2.3,2.8,10.7,7.8,12.6l3.1-5.7
			c0,0-3.7-14-5.8-10.5C668.1,422.9,666.6,419.6,665.9,420.8z"/>
		<path class="st16" d="M671,416.6c0,0-7.2,8.6,1.3,20.9c0,0,5.9-10.6,3.3-15.3C675.6,422.1,673.7,418.3,671,416.6z"/>
		<path class="st15" d="M669.6,440c0,0,2.8-1.8,3.2-3.6C673.2,434.7,669.6,440,669.6,440z"/>
	</g>
	<g>
		<path class="st12" d="M743.1,458.3c0,0,8.1-2.4,9.4-7.9l23.3-3.5l-21.3,16.3C754.5,463.3,747.2,465.1,743.1,458.3z"/>
		<path class="st12" d="M761.6,482.4c-1.6,1.3-2.5,3.2-2.3,5.2c0.1,0.7,0.3,1.3,0.8,1.7c0.7,0.6,2.4-0.4,4-0.4
			c0,0,11.5-1.5,13.1-7.6c1.6-6.1,7.7-30.2,7.7-30.2l-12.7,0.4C772.2,451.4,773.2,473.1,761.6,482.4z"/>
		<path class="st13" d="M772.7,488.7c2.3-2.5,6.3-7.9,4.6-13.8c0,0-8.2-15,8.7-26.2l6,20.1c0,0,0.5,20.9-18.6,21.4
			C772.6,490.2,772.1,489.3,772.7,488.7z"/>
		<path class="st13" d="M754.7,472.3c0,0-4.3,1.7-8.9-0.3c-5.2-2.3,11.6-14,11.6-14s16-10.5,26.3-10.3l3.2,4.2
			C786.9,451.9,761.1,473.2,754.7,472.3z"/>
		<path class="st14" d="M754.4,482.4c0,0,5.3,2.9,16.4-6.5c0,0,11.9-8.5,16-19.2l-6.3-7.6c0,0-14.3,7.3-19.7,14.8
			c-5.4,7.4-9.8,12.6-8.6,15.9C752.3,479.8,752.8,482.2,754.4,482.4z"/>
		<path class="st14" d="M800.4,472.9c-7.5-2.8-22.8-10.3-18.9-24.2c0,0,5.1-7.9,11.5-0.1c0,0-4.7,14.5,7.8,23.5
			C801.3,472.4,801,473.1,800.4,472.9z"/>
		<path class="st15" d="M758.1,458.9c1,0.5-0.3,3.1-0.3,3.1s4.6,2,8.7,0c4.1-2,19.3-7.1,21.9-16.7l-11.1-4.8c0,0-25.4,9.3-18.4,12.6
			C761.7,454.5,755.8,457.7,758.1,458.9z"/>
		<path class="st16" d="M749.3,450.2c0,0,17.2,11.8,38.6-6.1c0,0-20.6-9-29-3.4C758.9,440.7,752.2,444.9,749.3,450.2z"/>
		<path class="st15" d="M793.1,448.6c0,0-3.9-4.8-7.2-5.3C782.5,442.8,793.1,448.6,793.1,448.6z"/>
	</g>
	<g>
		<path class="st12" d="M505.8,510.2c0,0,4.1-3.7,3.4-7.2l12.8-8.4l-8.1,15.5C513.9,510,510.1,513,505.8,510.2z"/>
		<path class="st12" d="M523.4,519.3c-0.6,1.2-0.6,2.6,0.1,3.7c0.2,0.4,0.5,0.7,0.9,0.8c0.6,0.2,1.3-0.9,2.2-1.4c0,0,6.4-4,5.6-8.1
			c-0.7-4.1-3.7-19.9-3.7-19.9l-7.4,3.7C521.1,498.1,527.6,510.7,523.4,519.3z"/>
		<path class="st13" d="M531.6,520c0.7-2.1,1.6-6.4-1.1-9.4c0,0-8.9-6.6-2-17.8l9.1,10.2c0,0,6,12.2-5.1,17.7
			C532,520.9,531.4,520.5,531.6,520z"/>
		<path class="st13" d="M516.5,515.3c0,0-2.1,2.2-5.3,2.3c-3.7,0.1,3-11.4,3-11.4s6.6-10.6,12.7-13.3l3,1.6
			C529.9,494.4,520.6,514,516.5,515.3z"/>
		<path class="st14" d="M519.1,521.2c0,0,3.9,0.2,7.9-8.3c0,0,4.7-8.2,4.2-15.7l-5.8-2.7c0,0-6.4,8.2-7.6,14.1
			c-1.2,5.9-2.4,10.1-0.7,11.7C517.1,520.3,518.1,521.6,519.1,521.2z"/>
		<path class="st14" d="M543.6,503c-5.2,0.4-16.3,0.2-17.7-9.1c0,0,0.8-6,6.8-3.2c0,0,1.2,9.8,11,11.7C544,502.5,544,503,543.6,503z
			"/>
		<path class="st15" d="M514.8,506.4c0.7,0,0.7,1.9,0.7,1.9s3.2-0.1,5.1-2.4c1.9-2.3,9.4-9.5,8.3-15.9l-7.8,0.2
			c0,0-12.4,12.4-7.4,12.5C515.7,502.8,513.2,506.3,514.8,506.4z"/>
		<path class="st16" d="M506.9,503.1c0,0,13.2,3.1,21.9-12.9c0,0-14.6-0.5-18.4,4.9C510.4,495.1,507.3,499.2,506.9,503.1z"/>
		<path class="st15" d="M532.7,490.7c0,0-3.6-1.8-5.7-1.1C524.8,490.3,532.7,490.7,532.7,490.7z"/>
	</g>
	<g>
		<path class="st12" d="M952.4,411.7c-1,2.2-3.7,3.7-3.7,3.7c2.9,3.1,6.6,1.3,6.6,1.3l4.3-5H952.4z"/>
		<path class="st12" d="M963.8,411.7c0.5,3.8,0.7,10.2-2.7,14.2c-0.7,0.8-1,1.9-0.6,3c0.1,0.3,0.3,0.6,0.6,0.8
			c0.4,0.2,1.2-0.5,2.1-0.7c0,0,5.9-2.1,6-5.5c0.1-2.1,0.3-7.7,0.5-11.9H963.8z"/>
		<path class="st13" d="M973.5,411.7h-7c-1.1,4.9,2,8.6,2,8.6c1.6,2.9,0.1,6.2-0.9,7.7c-0.2,0.4,0.1,0.8,0.5,0.7
			c9.9-2.4,7.4-13.3,7.4-13.3L973.5,411.7z"/>
		<path class="st13" d="M958.2,411.7c-1.3,1.1-2.1,1.9-2.1,1.9s-7.5,8-4.5,8.7c2.6,0.5,4.7-0.8,4.7-0.8c2.2-0.2,7.2-5.6,10.8-9.8
			H958.2z"/>
		<path class="st14" d="M961.8,411.7c-1.3,1.5-2.5,3.1-3.2,4.6c-2,4.5-3.8,7.7-2.7,9.3c0,0,0.6,1.2,1.4,1.1c0,0,3.1,0.9,7.9-5.2
			c0,0,4.2-4.5,5.8-9.8H961.8z"/>
		<path class="st14" d="M980.6,416.1c-2.5-1.1-4.1-2.7-5.1-4.4h-5.9c2.7,3.3,7.9,4.5,10.8,4.9C980.7,416.6,980.8,416.2,980.6,416.1z
			"/>
		<path class="st15" d="M956.9,411.7c-0.2,0.8-1.2,2.1-0.3,2.3c0.6,0.2,0.2,1.7,0.2,1.7s2.6,0.5,4.6-1c0.8-0.6,2.4-1.6,4.1-3H956.9z
			"/>
	</g>
	<g>
		<path class="st12" d="M1437.7,513.1c0,0-4,3.3-3.4,6.6l-12.1,7.5l7.9-14.2C1430.2,513.1,1433.8,510.4,1437.7,513.1z"/>
		<path class="st12" d="M1421.7,504.2c0.6-1.1,0.7-2.4,0-3.4c-0.2-0.4-0.5-0.6-0.8-0.8c-0.5-0.2-1.3,0.8-2.1,1.2c0,0-6,3.6-5.5,7.4
			c0.6,3.8,2.9,18.6,2.9,18.6l7-3.3C1423.2,523.9,1417.5,512.1,1421.7,504.2z"/>
		<path class="st13" d="M1414,503.3c-0.7,2-1.6,5.9,0.7,8.8c0,0,8.1,6.4,1.4,16.6l-8.1-9.8c0,0-5.2-11.5,5.2-16.3
			C1413.7,502.4,1414.2,502.8,1414,503.3z"/>
		<path class="st13" d="M1427.9,508.1c0,0,2-2,5-2c3.4,0-3.1,10.6-3.1,10.6s-6.4,9.6-12.2,12l-2.8-1.5
			C1414.9,527.2,1424.1,509.2,1427.9,508.1z"/>
		<path class="st14" d="M1425.7,502.5c0,0-3.6-0.3-7.6,7.5c0,0-4.6,7.5-4.3,14.5l5.3,2.7c0,0,6.2-7.5,7.4-12.9
			c1.2-5.4,2.5-9.4,1-10.9C1427.5,503.4,1426.6,502.2,1425.7,502.5z"/>
		<path class="st14" d="M1402.3,518.7c4.8-0.2,15.2,0.3,16.3,9c0,0-1,5.6-6.4,2.8c0,0-0.9-9.2-9.9-11.2
			C1402,519.2,1402,518.7,1402.3,518.7z"/>
		<path class="st15" d="M1429.3,516.4c-0.7,0-0.6-1.8-0.6-1.8s-3,0-4.9,2.1c-1.8,2.1-9,8.6-8.2,14.5l7.3,0c0,0,11.9-11.2,7.2-11.4
			C1428.3,519.7,1430.8,516.5,1429.3,516.4z"/>
		<path class="st16" d="M1436.2,519.2c0,0-12.4-2.5-20,12.6c0,0,13.6,0.1,17-5C1433.1,526.7,1435.9,522.8,1436.2,519.2z"/>
		<path class="st15" d="M1412.2,530.5c0,0,3.3,1.8,5.3,1.2C1419.5,531.1,1412.2,530.5,1412.2,530.5z"/>
	</g>
	<g>
		<path class="st12" d="M1025.7,523.5c0,0-0.1-9.7-5.7-12.8l3.5-26.6l11.2,28.4C1034.7,512.5,1034.3,521.1,1025.7,523.5z"/>
		<path class="st12" d="M1057.8,510.7c0.9,2.1,2.7,3.8,4.9,4.1c0.8,0.1,1.5,0.1,2.1-0.3c0.9-0.5,0.4-2.7,0.8-4.5
			c0,0,1.9-13-4.3-16.7c-6.2-3.7-30.6-17.9-30.6-17.9l-3.5,14.1C1027.2,489.5,1051.3,495.2,1057.8,510.7z"/>
		<path class="st13" d="M1068.1,500.5c-2-3.4-6.7-9.4-13.7-9.3c0,0-19,4.3-26-17.7l23.9-0.3c0,0,23,6,17.6,27
			C1069.8,501.2,1068.6,501.3,1068.1,500.5z"/>
		<path class="st13" d="M1044.6,515.2c0,0,0.5,5.2-3.1,9.6c-4.1,5-11.8-17-11.8-17s-6.5-20.8-3.1-32l5.6-2.2
			C1032.3,473.5,1047.6,508.4,1044.6,515.2z"/>
		<path class="st14" d="M1055.5,518.6c0,0,4.8-4.9-2-20c0,0-5.6-15.6-16-23.5l-10.3,4.6c0,0,3.6,17.9,10,26.1
			c6.5,8.3,10.7,14.7,14.7,14.3C1052,520.1,1054.9,520.3,1055.5,518.6z"/>
		<path class="st14" d="M1059.5,465.2c-5.4,7.3-18.4,21.8-32.3,13.1c0,0-7-8,3.4-12.7c0,0,14.4,9.6,28.1-1.2
			C1059.2,464.1,1059.8,464.7,1059.5,465.2z"/>
		<path class="st15" d="M1031,507.3c0.9-0.9,3.4,1.3,3.4,1.3s3.6-4.4,2.7-9.6c-0.9-5.2-1.8-23.4-11.5-29.2l-8.7,10.7
			c0,0,2.3,30.6,8.1,24.1C1027.2,502,1029,509.4,1031,507.3z"/>
		<path class="st16" d="M1018.7,514.1c0,0,18.3-15.1,5.4-44.1c0,0-16.2,19.8-12.8,30.7C1011.4,500.7,1013.8,509.3,1018.7,514.1z"/>
		<path class="st15" d="M1030.6,465.7c0,0-6.5,2.8-8,6.3C1021,475.5,1030.6,465.7,1030.6,465.7z"/>
	</g>
	<g>
		<path class="st12" d="M1234.7,417.1c0,0,2.6,8.1,8.1,9.2l4,23.2l-16.8-20.9C1230,428.7,1228.1,421.4,1234.7,417.1z"/>
		<path class="st12" d="M1211.1,436.2c-1.3-1.5-3.2-2.5-5.2-2.2c-0.7,0.1-1.3,0.3-1.7,0.8c-0.6,0.7,0.4,2.4,0.5,4
			c0,0,1.8,11.4,7.9,12.9c6.2,1.5,30.3,7,30.3,7l-0.7-12.7C1242.3,446.1,1220.6,447.6,1211.1,436.2z"/>
		<path class="st13" d="M1205.1,447.4c2.6,2.3,8,6.1,13.9,4.2c0,0,14.8-8.5,26.4,8.1l-20,6.5c0,0-20.8,0.9-21.8-18.1
			C1203.5,447.4,1204.5,446.9,1205.1,447.4z"/>
		<path class="st13" d="M1221,429.1c0,0-1.8-4.3,0.1-8.9c2.2-5.3,14.3,11.2,14.3,11.2s10.8,15.8,10.9,26.1l-4.1,3.3
			C1242.2,460.8,1220.3,435.5,1221,429.1z"/>
		<path class="st14" d="M1211,429c0,0-2.7,5.4,6.8,16.3c0,0,8.7,11.7,19.5,15.5l7.4-6.5c0,0-7.6-14.1-15.2-19.3
			c-7.6-5.3-12.8-9.6-16.1-8.2C1213.5,426.8,1211.1,427.4,1211,429z"/>
		<path class="st14" d="M1221.5,474.8c2.6-7.5,9.8-23.1,23.7-19.4c0,0,8,4.9,0.4,11.5c0,0-14.6-4.4-23.3,8.3
			C1222,475.7,1221.3,475.3,1221.5,474.8z"/>
		<path class="st15" d="M1234.5,432.1c-0.5,1-3.2-0.2-3.2-0.2s-1.9,4.6,0.2,8.7s7.6,19.1,17.2,21.5l4.5-11.2c0,0-9.9-25.1-13-18.1
			C1239,435.6,1235.6,429.8,1234.5,432.1z"/>
		<path class="st16" d="M1243,423.2c0,0-11.4,17.4,6.9,38.4c0,0,8.5-20.8,2.7-29.1C1252.7,432.6,1248.4,425.9,1243,423.2z"/>
		<path class="st15" d="M1245.7,466.9c0,0,4.7-4,5.1-7.4C1251.1,456.2,1245.7,466.9,1245.7,466.9z"/>
	</g>
	<g>
		<path class="st12" d="M1314,460.6c0,0,3.4-0.7,4.1-2.9l9.6-0.6l-9.2,5.9C1318.4,463,1315.4,463.4,1314,460.6z"/>
		<path class="st12" d="M1320.7,471c-0.7,0.5-1.1,1.2-1.1,2c0,0.3,0.1,0.5,0.3,0.7c0.2,0.3,1-0.1,1.6,0c0,0,4.7-0.2,5.6-2.6
			s4.2-12,4.2-12l-5.2-0.3C1326.1,458.8,1325.7,467.6,1320.7,471z"/>
		<path class="st13" d="M1324.9,473.9c1-0.9,2.9-3,2.3-5.4c0,0-2.8-6.4,4.5-10.3l1.7,8.4c0,0-0.6,8.5-8.3,8
			C1324.8,474.6,1324.7,474.2,1324.9,473.9z"/>
		<path class="st13" d="M1318.2,466.7c0,0-1.8,0.5-3.6-0.4c-2-1.1,5.2-5.3,5.2-5.3s6.9-3.7,11.1-3.3l1.2,1.8
			C1332,459.5,1320.8,467.2,1318.2,466.7z"/>
		<path class="st14" d="M1317.7,470.7c0,0,2,1.3,6.9-2c0,0,5.1-3,7.2-7.2l-2.3-3.3c0,0-6.1,2.5-8.5,5.3c-2.5,2.8-4.4,4.8-4,6.1
			C1316.9,469.6,1317.1,470.6,1317.7,470.7z"/>
		<path class="st14" d="M1336.8,468.5c-2.9-1.4-8.9-5-6.8-10.5c0,0,2.3-3,4.7,0.4c0,0-2.4,5.7,2.3,9.8
			C1337.1,468.3,1337,468.6,1336.8,468.5z"/>
		<path class="st15" d="M1320,461.3c0.4,0.2-0.2,1.3-0.2,1.3s1.8,1,3.5,0.3c1.8-0.7,8.1-2.2,9.5-6l-4.3-2.3c0,0-10.6,2.9-7.9,4.5
			C1321.7,459.6,1319.2,460.8,1320,461.3z"/>
		<path class="st16" d="M1316.8,457.5c0,0,6.6,5.4,15.9-1.1c0,0-8.1-4.4-11.7-2.4C1321,454,1318.2,455.4,1316.8,457.5z"/>
		<path class="st15" d="M1334.6,458.4c0,0-1.4-2.1-2.8-2.4C1330.5,455.7,1334.6,458.4,1334.6,458.4z"/>
	</g>
	<g>
		
			<image style="overflow:visible;" width="40" height="41" xlink:href="6C18931E06336F90.png"  transform="matrix(1 0 0 1 945 527)">
		</image>
	</g>
	<g>
		
			<image style="overflow:visible;" width="41" height="41" xlink:href="6C18931E06336FB6.png"  transform="matrix(1 0 0 1 1217 533)">
		</image>
	</g>
	<path class="st7" d="M1531.1,997.7l-105-458c-0.7-3-2-5.7-3.8-8v463.5c0,3,2.4,5.4,5.4,5.4h98.5
		C1528.4,1000.6,1530.2,999.4,1531.1,997.7z"/>
	<path class="st7" d="M497.6,1000.6H388.2V413.9h0c60.2,0,109.4,49.2,109.4,109.4V1000.6z"/>
	<path class="st8" d="M497.6,531.7v-5.5c-5,2.9-8.8,7.7-10.2,13.6l-99.2,426.7v34.2l105.6-460.9C494.5,536.7,495.8,534,497.6,531.7z
		"/>
	<path class="st7" d="M1432.9,539.7l98.9,425.5V419.3c0-3-2.4-5.4-5.4-5.4l0,0c-57.2,0-104,46.8-104,104v8.1
		C1427.6,528.8,1431.5,533.7,1432.9,539.7z"/>
	<path class="st8" d="M1426.2,539.7l105,458c0.4-0.8,0.7-1.6,0.7-2.5v-30l-98.9-425.5c-1.4-6-5.3-10.9-10.5-13.8v5.7
		C1424.2,534,1425.5,536.7,1426.2,539.7z"/>
	<path class="st7" d="M1422.4,995.2V531.7c-3.9-5.1-10.1-8.4-16.8-8.4H514.4c-6.8,0-12.9,3.2-16.8,8.4v469h930.2
		C1424.8,1000.6,1422.4,998.2,1422.4,995.2z"/>
	<g>
		<defs>
			<path id="SVGID_9_" d="M1422.4,995.2V531.7c-3.9-5.1-10.1-8.4-16.8-8.4H514.4c-6.8,0-12.9,3.2-16.8,8.4v469h930.2
				C1424.8,1000.6,1422.4,998.2,1422.4,995.2z"/>
		</defs>
		<clipPath id="SVGID_10_">
			<use xlink:href="#SVGID_9_"  style="overflow:visible;"/>
		</clipPath>
		<g id="stamp_1_" class="st20">
			<path class="st18" d="M1019.7,509.5c1.5-5.5-0.1-11.5-4.9-15.8c-4.3-3.8-9.4-4.2-14.6-5.6c-6.6-1.8-12.5-5.1-19.1-6.9
				c-15.7-4.2-37.6,3-48,15.5c-12.6,15.3-16.4,39.3-14.6,58.3c1.9,20.6,11.6,40.1,29.7,50.9c1.6,1,3.2,1.4,4.7,1.4
				c8.8,5.2,19.2,8.3,30.2,8.3c32.8,0,59.3-26.6,59.3-59.3C1042.4,537.2,1033.5,520.4,1019.7,509.5z"/>
			<circle class="st5" cx="983.2" cy="555.2" r="60.3"/>
			
				<image style="overflow:visible;" width="120" height="120" xlink:href="6C18931E06336FB5.png"  transform="matrix(1 0 0 1 923 496)">
			</image>
			<circle class="st4" cx="983.1" cy="556.2" r="59.3"/>
			
				<image style="overflow:visible;" width="120" height="120" xlink:href="6C18931E06336FB2.png"  transform="matrix(1 0 0 1 923 496)">
			</image>
			<g>
				<path class="st19" d="M1014.8,531.6c0-0.2-0.1-0.3-0.3-0.3c-2.5,0-12.3,9.8-21.5,19.6c-8.3,8.8-15.7,17.6-18.5,17.6
					c-0.9,0-1.5-0.5-1.5-1.7c0-6.3,18.5-23.5,18.5-30.5c0-0.6-0.3-1.1-1.1-1.1c-3.5,0-11.5,8.3-19.5,16.9
					c-8.5,9.2-15.7,18.8-19.1,18.8c-1,0-1.7-0.5-1.7-1.7c0-6.9,23.9-29.3,23.9-35.9c0-0.8-0.6-1.4-2-1.4c-5,0-14.2,7.6-20.8,15.3
					c-0.5,0.5-0.9,0.7-1.2,0.7c-0.3,0-0.5-0.2-0.5-0.5c0-1.4,14.8-16.9,22.8-16.9c1.8,0,3.3,1.1,3.3,3.1c0,7.4-23.7,29.8-23.7,35
					c0,0.3,0.2,0.5,0.5,0.5c2,0,9.2-9.2,17.6-18.3c8.1-8.7,16.9-17.2,21.2-17.2c1.1,0,2.1,0.8,2.1,2.6c0,7.2-18.6,25.6-18.6,30
					c0,0.4,0.2,0.5,0.4,0.5c1.4,0,8.7-8.2,17-17c9.1-9.7,19.4-20.2,23.5-20.2c0.7,0,1.1,0.5,1.1,1.1c0,5.3-20,21-20,32
					c0,3.3,2.3,4.2,4.1,4.2c2.9,0,6.4-2.9,9.9-8.2c0.2-0.3,0.4-0.4,0.5-0.4c0.3,0,0.5,0.3,0.5,0.6c0,0.3-0.6,1.3-1.6,2.7
					c-2.1,2.7-5.8,6.6-9.6,6.6c-2.6,0-5.6-1.5-5.6-5.9C994.9,551.7,1014.8,534.4,1014.8,531.6z"/>
			</g>
			<g>
				<path class="st19" d="M995.4,573.5c-1.1,0-2-0.2-1.9-0.6c0-0.4,1.2-0.4,1.3-0.4c7.8,0,17.2-4.3,17.2-10.8c0-2.4-2.1-4.4-6-4.4
					c-10.3,0-25.5,12-25.5,24.3c0,6.3,4.4,9.6,10.5,9.6c5.5,0,11.2-3.7,15.6-10.2c0.2-0.3,0.4-0.5,0.6-0.5c0.2,0,0.3,0.1,0.3,0.4
					c0,0.3-0.7,1.6-1.9,3c-2.7,3.3-8.1,8.1-15,8.1c-6.7,0-11.8-3.5-11.8-10.7c0-13,16.3-24.9,27.1-24.9c4.8,0,7.1,2.4,7.1,5.2
					C1013.1,569.3,1002.2,573.5,995.4,573.5z"/>
			</g>
		</g>
	</g>
</g>
</svg>
