<?xml version="1.0" encoding="utf-8"?>
<!-- Generator: Adobe Illustrator 24.1.0, SVG Export Plug-In . SVG Version: 6.00 Build 0)  -->
<svg version="1.1" id="Layer_1" xmlns="http://www.w3.org/2000/svg" xmlns:xlink="http://www.w3.org/1999/xlink" x="0px" y="0px"
	 viewBox="0 0 1920 1080" style="enable-background:new 0 0 1920 1080;" xml:space="preserve">
<style type="text/css">
	.st0{fill:#9FB0A8;}
	.st1{fill:#92A099;}
	.st2{fill:#929A99;}
	.st3{fill-rule:evenodd;clip-rule:evenodd;fill:#BF8E7D;}
	.st4{fill:#9F6A58;}
	.st5{fill:#BF8E7D;}
	.st6{fill:#975C4C;}
</style>
<g id="Layer_1_1_">
	<g>
		<g id="envelope">
			<rect x="388.2" y="413.9" class="st0" width="1143.6" height="586.7"/>
			<g>
				<path class="st1" d="M497.6,526.1v-2.8c0-60.2-49.2-109.4-109.4-109.4l0,0v552.5l99.2-426.7C488.7,533.8,492.6,529,497.6,526.1z
					"/>
				<path class="st2" d="M514.4,523.3h-6.2c-3.9,0-7.5,1-10.7,2.8v5.5C501.5,526.5,507.7,523.3,514.4,523.3z"/>
				<path class="st2" d="M1422.4,531.7V526c-3.1-1.7-6.6-2.6-10.4-2.6h-6.5C1412.3,523.3,1418.5,526.5,1422.4,531.7z"/>
				<path class="st1" d="M1526.4,1000.6h5.4l-0.7-2.9C1530.2,999.4,1528.4,1000.6,1526.4,1000.6z"/>
				<path class="st1" d="M1422.4,995.2V531.7c-3.9-5.1-10.1-8.4-16.8-8.4H514.4c-6.8,0-12.9,3.2-16.8,8.4v469h930.2
					C1424.8,1000.6,1422.4,998.2,1422.4,995.2z"/>
				<path class="st1" d="M493.8,539.7l-105.6,460.9h109.4v-469C495.8,534,494.5,536.7,493.8,539.7z"/>
			</g>
			<path class="st1" d="M1531.1,997.7l-105-458c-0.7-3-2-5.7-3.8-8v463.5c0,3,2.4,5.4,5.4,5.4h98.5
				C1528.4,1000.6,1530.2,999.4,1531.1,997.7z"/>
			<path class="st1" d="M497.6,1000.6H388.2V413.9l0,0c60.2,0,109.4,49.2,109.4,109.4V1000.6z"/>
			<path class="st2" d="M497.6,531.7v-5.5c-5,2.9-8.8,7.7-10.2,13.6l-99.2,426.7v34.2l105.6-460.9
				C494.5,536.7,495.8,534,497.6,531.7z"/>
			<path class="st1" d="M1432.9,539.7l98.9,425.5V419.3c0-3-2.4-5.4-5.4-5.4l0,0c-57.2,0-104,46.8-104,104v8.1
				C1427.6,528.8,1431.5,533.7,1432.9,539.7z"/>
			<path class="st2" d="M1426.2,539.7l105,458c0.4-0.8,0.7-1.6,0.7-2.5v-30L1433,539.7c-1.4-6-5.3-10.9-10.5-13.8v5.7
				C1424.2,534,1425.5,536.7,1426.2,539.7z"/>
		</g>
		<path class="st1" d="M1422.4,995.2V531.7c-3.9-5.1-10.1-8.4-16.8-8.4H514.4c-6.8,0-12.9,3.2-16.8,8.4v469h930.2
			C1424.8,1000.6,1422.4,998.2,1422.4,995.2z"/>
		<g>
			<g>
				<defs>
					<path id="SVGID_1_" d="M1422.4,995.2V531.7c-3.9-5.1-10.1-8.4-16.8-8.4H514.4c-6.8,0-12.9,3.2-16.8,8.4v469h930.2
						C1424.8,1000.6,1422.4,998.2,1422.4,995.2z"/>
				</defs>
				<clipPath id="SVGID_2_">
					<use xlink:href="#SVGID_1_"  style="overflow:visible;"/>
				</clipPath>
			</g>
		</g>
	</g>
</g>
<g id="Layer_2_1_">
	<g>
		<path class="st1" d="M524,577.6c-33.5,0-63.3-15.9-74.2-39.6l-56.1-120.8h1132.6l-56,120.8c-11,23.7-40.9,39.6-74.2,39.6H524z"/>
		<path class="st2" d="M1520.8,420.7l-53.7,115.8c-10.5,22.5-39,37.6-71.1,37.6H524c-32.1,0-60.7-15.1-71.1-37.6l-53.8-115.8H1520.8
			 M1531.8,413.7H388.2l58.4,125.8c11.5,24.9,42.6,41.6,77.4,41.6h872.1c34.8,0,65.8-16.7,77.4-41.6L1531.8,413.7L1531.8,413.7z"/>
	</g>
</g>
<g id="stamp">
	<path class="st3" d="M1019.7,561.1c1.5-5.5-0.1-11.5-4.9-15.8c-4.3-3.8-9.4-4.2-14.6-5.6c-6.6-1.8-12.5-5.1-19.1-6.9
		c-15.7-4.2-37.6,3-48,15.5c-12.6,15.3-16.4,39.3-14.6,58.3c1.9,20.6,11.6,40.1,29.7,50.9c1.6,1,3.2,1.4,4.7,1.4
		c8.8,5.2,19.2,8.3,30.2,8.3c32.8,0,59.3-26.6,59.3-59.3C1042.4,588.8,1033.5,572,1019.7,561.1z"/>
	<circle class="st4" cx="983.2" cy="606.8" r="60.3"/>
	
		<image style="overflow:visible;enable-background:new    ;" width="120" height="120" xlink:href="A9E0703879F4F1A8.png"  transform="matrix(1 0 0 1 923 547.6017)">
	</image>
	
		<ellipse transform="matrix(0.1602 -0.9871 0.9871 0.1602 225.6714 1480.8484)" class="st5" cx="983.1" cy="607.8" rx="59.3" ry="59.3"/>
	
		<image style="overflow:visible;enable-background:new    ;" width="120" height="120" xlink:href="A9E0703879F4F1A6.png"  transform="matrix(1 0 0 1 923 547.6017)">
	</image>
	<g>
		<path class="st6" d="M1014.8,583.2c0-0.2-0.1-0.3-0.3-0.3c-2.5,0-12.3,9.8-21.5,19.6c-8.3,8.8-15.7,17.6-18.5,17.6
			c-0.9,0-1.5-0.5-1.5-1.7c0-6.3,18.5-23.5,18.5-30.5c0-0.6-0.3-1.1-1.1-1.1c-3.5,0-11.5,8.3-19.5,16.9
			c-8.5,9.2-15.7,18.8-19.1,18.8c-1,0-1.7-0.5-1.7-1.7c0-6.9,23.9-29.3,23.9-35.9c0-0.8-0.6-1.4-2-1.4c-5,0-14.2,7.6-20.8,15.3
			c-0.5,0.5-0.9,0.7-1.2,0.7s-0.5-0.2-0.5-0.5c0-1.4,14.8-16.9,22.8-16.9c1.8,0,3.3,1.1,3.3,3.1c0,7.4-23.7,29.8-23.7,35
			c0,0.3,0.2,0.5,0.5,0.5c2,0,9.2-9.2,17.6-18.3c8.1-8.7,16.9-17.2,21.2-17.2c1.1,0,2.1,0.8,2.1,2.6c0,7.2-18.6,25.6-18.6,30
			c0,0.4,0.2,0.5,0.4,0.5c1.4,0,8.7-8.2,17-17c9.1-9.7,19.4-20.2,23.5-20.2c0.7,0,1.1,0.5,1.1,1.1c0,5.3-20,21-20,32
			c0,3.3,2.3,4.2,4.1,4.2c2.9,0,6.4-2.9,9.9-8.2c0.2-0.3,0.4-0.4,0.5-0.4c0.3,0,0.5,0.3,0.5,0.6s-0.6,1.3-1.6,2.7
			c-2.1,2.7-5.8,6.6-9.6,6.6c-2.6,0-5.6-1.5-5.6-5.9C994.9,603.3,1014.8,586,1014.8,583.2z"/>
	</g>
	<g>
		<path class="st6" d="M995.4,625.1c-1.1,0-2-0.2-1.9-0.6c0-0.4,1.2-0.4,1.3-0.4c7.8,0,17.2-4.3,17.2-10.8c0-2.4-2.1-4.4-6-4.4
			c-10.3,0-25.5,12-25.5,24.3c0,6.3,4.4,9.6,10.5,9.6c5.5,0,11.2-3.7,15.6-10.2c0.2-0.3,0.4-0.5,0.6-0.5c0.2,0,0.3,0.1,0.3,0.4
			c0,0.3-0.7,1.6-1.9,3c-2.7,3.3-8.1,8.1-15,8.1c-6.7,0-11.8-3.5-11.8-10.7c0-13,16.3-24.9,27.1-24.9c4.8,0,7.1,2.4,7.1,5.2
			C1013.1,620.9,1002.2,625.1,995.4,625.1z"/>
	</g>
</g>
</svg>
